<?xml version="1.0" encoding="UTF-8" standalone="no"?>
<svg
   width="336"
   height="322"
   version="1.1"
   id="svg48"
   sodipodi:docname="pig-pad.svg"
   inkscape:version="1.2.2 (b0a8486541, 2022-12-01)"
   xmlns:inkscape="http://www.inkscape.org/namespaces/inkscape"
   xmlns:sodipodi="http://sodipodi.sourceforge.net/DTD/sodipodi-0.dtd"
   xmlns="http://www.w3.org/2000/svg"
   xmlns:svg="http://www.w3.org/2000/svg">
  <defs
     id="defs52" />
  <sodipodi:namedview
     id="namedview50"
     pagecolor="#ffffff"
     bordercolor="#666666"
     borderopacity="1.0"
     inkscape:showpageshadow="2"
     inkscape:pageopacity="0.0"
     inkscape:pagecheckerboard="0"
     inkscape:deskcolor="#d1d1d1"
     showgrid="false"
     inkscape:zoom="3.0962733"
     inkscape:cx="263.54263"
     inkscape:cy="218.64995"
     inkscape:window-width="2296"
     inkscape:window-height="2126"
     inkscape:window-x="1920"
     inkscape:window-y="26"
     inkscape:window-maximized="1"
     inkscape:current-layer="g46" />
  <g
     id="g46">
    <g
       id="g136"
       transform="matrix(0.66381946,0,0,0.66381946,57.380838,54.788143)">
      <svg
         width="336"
         height="322"
         version="1.1"
         id="svg2" />
      <svg
         width="336"
         height="322"
         version="1.0"
         viewBox="0 0 336 322"
         id="svg26">
        <g
           fill="#a2a4a7"
           transform="matrix(0.1,0,0,-0.1,0,322)"
           id="g24">
          <path
             d="m 641,3090 c -24,-11 -73,-46 -110,-78 -117,-103 -201,-151 -356,-203 -77,-26 -88,-35 -74,-60 5,-10 9,-28 9,-41 1,-19 18,-32 108,-76 60,-29 133,-57 164,-64 58,-12 79,-7 200,45 34,16 37,15 62,-4 14,-11 31,-37 37,-58 10,-34 9,-41 -19,-82 -45,-67 -106,-214 -126,-304 -44,-198 -66,-275 -90,-324 -28,-54 -76,-179 -104,-266 -10,-32 -15,-87 -15,-155 0,-124 26,-214 99,-345 78,-140 178,-242 342,-348 67,-44 67,-44 85,-122 10,-42 21,-83 23,-90 3,-7 -3,-15 -14,-17 -42,-11 -73,-148 -57,-253 12,-84 82,-133 146,-101 40,20 53,20 69,1 16,-19 82,-20 118,-1 33,17 73,59 101,106 23,38 28,111 12,168 -9,31 -6,36 56,107 l 65,75 h 72 c 39,0 111,5 160,10 49,6 96,8 105,5 9,-4 31,-27 49,-52 29,-40 32,-47 19,-62 -36,-41 -49,-172 -26,-255 22,-81 95,-117 159,-79 26,15 30,15 65,-1 68,-33 138,0 197,93 35,56 37,121 7,191 -21,50 -21,50 20,132 22,46 47,106 56,134 12,41 20,53 41,58 36,9 128,78 196,147 74,76 129,172 167,292 28,88 31,109 31,231 v 134 l 43,7 c 167,26 322,136 360,256 9,31 17,65 17,76 0,12 15,32 36,48 40,30 79,106 89,170 5,32 1,27 -16,-24 -31,-89 -109,-168 -109,-110 0,24 -52,79 -75,79 -9,0 -39,-10 -66,-21 -53,-23 -84,-64 -72,-96 14,-41 35,-53 90,-53 56,0 59,-3 43,-44 -26,-70 -142,-151 -250,-175 -113,-25 -109,-26 -132,27 -11,26 -47,105 -80,176 -60,127 -208,524 -208,556 0,27 39,70 64,70 12,0 53,-13 91,-30 117,-50 187,-40 371,53 90,45 91,47 98,88 4,23 5,43 4,44 -2,1 -48,17 -103,35 -137,44 -252,106 -364,194 -107,85 -174,112 -249,102 -72,-10 -128,-49 -174,-122 -22,-35 -44,-64 -50,-64 -5,0 -21,6 -36,14 -82,42 -247,79 -435,97 -191,19 -347,-4 -500,-73 -37,-17 -69,-29 -70,-27 -2,2 -22,43 -46,91 -49,103 -80,142 -132,168 -50,26 -130,26 -188,0 z m 146,-100 c 23,-14 46,-45 79,-111 44,-90 46,-95 42,-166 -3,-41 -2,-76 2,-78 4,-2 33,16 66,41 71,54 145,93 239,125 64,22 86,24 260,24 257,-1 412,-33 549,-116 37,-22 72,-37 76,-32 5,4 25,40 45,78 53,100 80,133 120,144 50,13 93,-1 165,-57 112,-85 204,-141 292,-180 48,-20 88,-39 88,-42 0,-9 -112,-51 -154,-56 -34,-5 -53,-1 -96,21 -70,36 -162,45 -209,21 -30,-16 -111,-126 -111,-152 0,-5 17,-55 39,-110 21,-54 60,-160 86,-234 26,-74 79,-200 117,-280 90,-188 102,-232 101,-395 0,-115 -3,-139 -27,-210 -45,-131 -140,-256 -246,-325 -68,-44 -155,-73 -370,-124 -267,-63 -327,-70 -610,-70 -243,0 -246,0 -325,28 -241,84 -401,220 -505,431 -97,195 -95,313 9,557 53,126 85,225 111,338 44,196 75,276 153,388 43,61 49,76 39,90 -6,9 -25,42 -41,72 -64,122 -140,145 -266,82 -60,-30 -127,-26 -201,11 -42,22 -46,26 -29,32 73,26 211,104 269,152 152,129 181,141 243,103 z M 3048,1978 c 3,-38 3,-38 -37,-38 -52,0 -71,8 -71,31 0,25 39,50 75,47 27,-3 30,-7 33,-40 z M 2140,706 c 0,-2 -16,-37 -34,-78 l -35,-74 -88,4 c -81,3 -90,6 -111,30 -50,58 -52,56 91,89 124,29 177,38 177,29 z M 1050,615 c 36,-8 89,-15 118,-15 28,0 52,-3 52,-7 -1,-5 -14,-23 -29,-41 -29,-34 -29,-34 -107,-22 -44,7 -86,15 -94,19 -8,5 -20,27 -27,50 -11,38 -10,42 5,37 9,-3 46,-12 82,-21 z m -59,1830 c -60,-51 -78,-166 -37,-242 15,-28 14,-28 -68,-108 -84,-82 -188,-226 -201,-280 -4,-16 -9,-63 -12,-103 -4,-68 -2,-79 31,-149 43,-89 117,-179 185,-222 26,-17 53,-42 59,-56 22,-48 97,-118 157,-146 149,-71 362,-8 427,126 18,36 32,49 95,80 88,44 170,117 200,177 76,151 44,300 -102,471 -36,42 -65,80 -65,85 0,5 7,15 16,23 77,64 71,257 -9,321 -27,22 -85,23 -115,2 -30,-21 -61,-84 -69,-140 -5,-41 -8,-45 -27,-39 -106,32 -135,37 -203,31 -73,-6 -73,-6 -73,20 0,133 -107,218 -189,149 z m 427,-302 c 78,-37 271,-248 318,-348 30,-63 32,-152 5,-210 -81,-174 -441,-275 -695,-195 -98,31 -149,66 -201,140 -95,134 -94,212 2,356 159,239 390,343 571,257 z m 11,-878 c -8,-8 -42,-25 -74,-36 -75,-27 -187,-22 -252,10 -24,12 -43,23 -43,24 0,2 62,1 138,-1 77,-2 152,0 172,6 19,6 44,11 55,11 17,1 18,-1 4,-14 z m -430,628 c -101,-105 -122,-159 -93,-232 20,-49 38,-61 97,-61 50,0 105,31 124,70 19,40 3,222 -21,249 -30,33 -57,26 -107,-26 z m 300,28 c -22,-17 -24,-29 -29,-122 -6,-117 4,-150 54,-180 30,-19 98,-25 131,-13 23,9 55,77 55,116 0,42 -31,93 -99,163 -58,59 -76,65 -112,36 z"
             id="path22" />
        </g>
      </svg>
      <svg
         width="336"
         height="322"
         version="1.0"
         viewBox="0 0 336 322"
         id="svg32">
        <g
           fill="#737576"
           transform="matrix(0.1,0,0,-0.1,0,322)"
           id="g30">
          <path
             d="m 657,3096 c -41,-15 -42,-16 -127,-90 -108,-95 -222,-158 -365,-204 -27,-8 -54,-18 -58,-22 -4,-4 -5,-26 -1,-49 7,-42 7,-42 131,-103 155,-76 193,-79 302,-29 87,40 107,35 139,-33 22,-45 22,-45 -9,-90 C 601,2375 561,2263 504,2020 490,1957 458,1862 435,1810 335,1588 309,1460 334,1328 381,1085 543,864 774,727 c 58,-34 58,-34 82,-127 25,-93 25,-93 4,-107 -32,-22 -47,-62 -54,-143 -9,-98 6,-163 44,-190 32,-23 84,-25 120,-6 21,12 27,12 49,-5 52,-41 136,-11 196,71 43,59 54,116 35,184 -12,44 -12,44 51,120 51,60 70,75 92,76 16,0 94,5 173,11 l 146,11 33,-39 c 43,-48 50,-69 31,-88 -40,-41 -47,-202 -12,-277 31,-64 109,-86 157,-42 15,13 20,13 53,-7 34,-20 41,-21 79,-9 47,14 98,62 129,123 23,47 20,121 -9,181 -16,35 -16,35 29,133 25,54 49,113 53,131 5,26 15,37 42,49 105,43 253,194 312,315 63,131 82,220 80,368 l -2,125 64,8 c 172,21 328,155 355,302 4,27 19,53 46,80 37,37 78,111 78,138 0,7 -9,-6 -19,-28 -34,-75 -101,-135 -101,-91 0,8 -12,28 -26,45 -20,24 -34,31 -61,31 -65,0 -123,-46 -123,-96 0,-43 30,-64 92,-64 37,0 48,-4 48,-15 0,-41 -68,-120 -140,-163 -39,-23 -122,-47 -191,-57 -46,-6 -46,-6 -64,42 -10,26 -47,109 -82,183 -36,74 -84,191 -108,260 -24,69 -57,163 -74,208 -32,86 -32,91 2,130 27,29 61,28 130,-3 112,-52 195,-42 359,42 100,52 105,56 110,101 3,34 3,34 -118,76 -145,51 -225,94 -336,182 -106,85 -157,108 -228,107 -30,-1 -67,-6 -81,-11 -43,-17 -99,-72 -131,-129 -16,-29 -31,-53 -32,-53 -1,0 -20,9 -42,19 -70,34 -161,59 -291,81 -108,19 -154,21 -293,17 -144,-4 -176,-8 -250,-32 -47,-15 -102,-36 -123,-47 -21,-10 -43,-18 -49,-16 -5,2 -20,26 -32,53 -35,83 -86,163 -114,183 -66,44 -133,53 -205,28 z m 133,-101 c 22,-11 42,-41 77,-113 45,-92 48,-101 45,-169 -1,-40 2,-73 7,-73 4,0 25,13 45,29 170,135 347,183 604,162 217,-18 378,-63 480,-133 50,-35 45,-39 97,63 44,86 78,125 120,139 54,18 88,4 202,-82 104,-78 191,-128 303,-174 l 55,-22 -57,-27 c -87,-40 -142,-43 -211,-11 -143,65 -222,43 -290,-82 l -27,-50 31,-79 c 17,-43 42,-109 56,-148 13,-38 38,-108 55,-155 17,-47 64,-155 104,-241 40,-85 80,-184 89,-220 19,-82 19,-246 -1,-329 -47,-202 -195,-374 -375,-437 -91,-31 -418,-109 -529,-125 -51,-8 -186,-13 -340,-13 -253,0 -256,1 -335,28 -265,93 -455,279 -541,532 -38,112 -38,209 1,325 15,47 36,101 45,120 36,73 90,231 110,324 46,209 90,320 169,426 23,30 41,57 41,61 0,3 -8,17 -19,30 -10,13 -30,47 -44,74 -13,28 -33,57 -43,66 -48,42 -126,41 -212,-3 -59,-29 -67,-31 -105,-21 -96,26 -174,73 -121,73 35,0 214,104 290,169 120,103 161,119 224,86 z m 2247,-973 c 7,-4 14,-23 15,-42 3,-35 3,-35 -47,-38 -37,-2 -52,1 -61,13 -17,23 -7,45 30,61 36,15 47,16 63,6 z M 2110,632 c -16,-33 -30,-66 -30,-72 0,-18 -192,-1 -208,19 -41,51 -46,62 -31,72 8,5 23,9 34,9 11,1 74,14 140,29 86,20 121,25 123,16 1,-6 -11,-39 -28,-73 z M 1055,619 c 33,-5 87,-12 119,-17 l 59,-7 -37,-41 c -37,-41 -37,-41 -94,-28 -31,8 -71,14 -88,14 -32,0 -40,10 -59,79 -7,22 -5,23 16,17 13,-4 51,-11 84,-17 z m -52,1831 c -18,-11 -39,-36 -48,-56 -20,-48 -19,-147 1,-190 16,-34 16,-34 -65,-110 -86,-80 -186,-219 -204,-282 -6,-20 -11,-71 -11,-112 -1,-66 3,-84 32,-143 41,-83 111,-166 179,-212 29,-19 59,-48 67,-64 24,-46 98,-115 151,-141 70,-35 206,-36 280,-2 59,27 132,94 151,139 11,25 31,41 82,67 94,48 145,87 183,142 46,67 60,115 60,203 0,110 -33,180 -151,317 -27,33 -50,62 -50,66 0,4 14,28 32,53 26,37 33,57 36,109 5,78 -9,125 -53,171 -74,79 -176,11 -189,-125 -3,-32 -8,-44 -18,-41 -109,34 -167,43 -226,34 -34,-5 -65,-7 -67,-4 -3,2 -5,26 -5,53 0,56 -18,97 -56,127 -33,26 -70,27 -111,1 z m 409,-298 c 61,-28 115,-78 215,-200 115,-141 133,-176 133,-266 0,-121 -49,-188 -184,-252 -99,-47 -174,-65 -297,-71 -220,-12 -346,37 -439,169 -53,75 -76,146 -67,209 12,90 166,288 280,361 84,54 170,80 249,74 37,-3 87,-14 110,-24 z m 48,-873 c -8,-6 -42,-24 -75,-40 -51,-25 -72,-29 -140,-29 -68,0 -89,4 -144,30 -35,17 -62,33 -59,35 3,3 29,1 58,-5 73,-14 223,-11 295,5 75,17 84,17 65,4 z m -469,604 c -71,-76 -91,-110 -91,-157 0,-93 41,-134 121,-123 94,12 118,56 110,200 -5,88 -9,101 -30,118 -13,10 -30,19 -39,19 -9,0 -41,-26 -71,-57 z m 309,36 c -23,-20 -25,-29 -29,-122 -4,-117 10,-156 64,-181 71,-34 133,-14 161,52 28,67 5,120 -95,225 -50,52 -64,56 -101,26 z"
             id="path28" />
        </g>
      </svg>
      <svg
         width="336"
         height="322"
         version="1.0"
         viewBox="0 0 336 322"
         id="svg38">
        <g
           fill="#434546"
           transform="matrix(0.1,0,0,-0.1,0,322)"
           id="g36">
          <path
             d="m 668,3096 c -47,-17 -70,-32 -133,-88 -119,-104 -186,-144 -344,-199 -89,-31 -92,-33 -86,-58 4,-14 9,-34 11,-45 2,-10 5,-19 6,-20 l 112,-56 c 144,-72 196,-77 303,-30 89,39 112,34 145,-34 l 21,-45 -41,-63 C 594,2353 559,2253 515,2045 495,1953 468,1874 410,1742 313,1518 304,1383 375,1195 447,1003 579,850 777,729 c 59,-37 59,-37 83,-129 23,-93 23,-93 2,-109 -31,-25 -49,-70 -55,-141 -8,-94 5,-149 42,-182 36,-32 79,-36 121,-12 26,16 29,16 58,-6 41,-30 90,-21 142,27 76,68 101,140 79,226 -13,54 -12,56 70,146 l 49,54 173,9 174,10 37,-44 c 41,-48 45,-63 23,-88 -38,-42 -38,-229 -1,-286 35,-52 96,-64 138,-26 16,13 22,13 64,-6 58,-24 91,-16 145,35 56,53 82,113 73,170 -3,27 -13,60 -20,75 -20,39 -17,64 12,114 14,24 38,79 53,121 25,72 31,80 71,101 160,84 278,226 341,409 32,93 33,105 34,244 v 147 l 53,5 c 101,11 215,69 284,145 45,50 63,84 79,148 8,34 26,64 56,96 23,26 43,50 43,55 0,4 -16,-11 -36,-32 -34,-38 -37,-39 -50,-20 -8,10 -14,24 -14,30 0,21 -46,55 -74,55 -35,0 -102,-35 -116,-59 -30,-56 5,-101 79,-101 28,0 52,-4 55,-8 16,-26 -91,-162 -128,-162 -7,0 -19,-6 -25,-14 -11,-13 -52,-25 -180,-54 -43,-10 -43,-10 -63,37 -11,25 -48,107 -84,181 -54,114 -130,312 -201,521 -16,46 -16,48 8,77 13,17 32,34 41,37 9,3 50,-7 90,-24 40,-16 89,-33 109,-36 53,-10 142,16 258,75 94,47 100,52 107,86 3,19 3,39 -2,43 -5,4 -52,23 -104,40 -149,52 -268,117 -363,200 -27,23 -72,53 -100,67 -43,22 -61,25 -117,22 -86,-5 -136,-36 -191,-120 -22,-34 -41,-63 -43,-65 -1,-2 -28,8 -59,22 -170,75 -520,117 -703,84 -76,-13 -176,-45 -237,-76 -27,-13 -50,-23 -52,-21 -2,2 -22,43 -45,91 -23,48 -56,104 -73,124 -58,66 -139,87 -219,59 z m 132,-105 c 14,-10 46,-60 73,-112 47,-93 47,-95 41,-168 -5,-60 -3,-72 8,-65 7,5 51,34 98,65 95,63 171,94 278,115 231,44 616,-23 758,-131 38,-29 30,-36 97,85 19,36 50,79 67,95 27,26 39,30 85,30 51,0 57,-3 155,-78 104,-80 199,-136 303,-178 67,-27 64,-35 -28,-68 -75,-28 -121,-29 -172,-3 -96,50 -178,52 -232,6 -32,-27 -81,-107 -81,-133 0,-9 15,-56 34,-106 19,-49 56,-148 81,-220 26,-71 77,-195 115,-275 98,-209 102,-224 108,-377 3,-105 1,-147 -13,-200 -30,-117 -82,-208 -165,-294 -112,-115 -193,-147 -578,-233 -165,-37 -314,-49 -560,-44 -217,4 -217,4 -303,39 -238,97 -382,228 -484,441 -19,39 -42,105 -51,146 -28,126 -16,185 96,462 23,57 62,181 85,275 54,216 75,269 141,367 30,43 54,82 54,86 0,10 -60,121 -81,150 -43,59 -125,67 -218,21 -48,-24 -71,-30 -101,-26 -44,6 -162,56 -155,67 2,4 26,15 52,25 78,29 183,94 268,165 44,37 94,75 110,84 35,19 79,14 115,-13 z m 2254,-992 c 15,-45 3,-59 -52,-59 -79,0 -96,44 -31,78 37,19 72,11 83,-19 z M 2150,716 c 0,-2 -18,-42 -40,-88 l -40,-83 -95,10 c -94,10 -95,11 -121,47 -28,39 -25,58 9,58 12,1 74,14 137,30 112,28 150,34 150,26 z M 1005,630 c 14,-5 69,-14 121,-19 52,-4 98,-11 101,-15 4,-4 -11,-25 -33,-47 -41,-41 -41,-41 -94,-25 -30,9 -69,16 -87,16 -35,0 -43,10 -59,75 -7,28 6,32 51,15 z m 7,1825 c -64,-28 -95,-165 -54,-245 18,-35 18,-35 -68,-120 -92,-90 -183,-219 -203,-285 -6,-22 -12,-70 -12,-106 0,-56 6,-76 39,-145 44,-87 117,-172 184,-211 25,-15 51,-41 62,-62 26,-52 97,-116 155,-143 73,-33 189,-31 265,4 71,32 121,76 150,131 19,36 36,50 104,85 93,48 157,105 194,177 23,44 27,62 27,145 0,87 -3,101 -32,160 -18,36 -58,96 -90,134 -92,109 -89,104 -65,127 34,31 54,78 59,140 9,99 -54,199 -125,199 -52,0 -111,-89 -112,-167 0,-24 -2,-43 -5,-43 -3,0 -33,9 -66,20 -55,19 -154,26 -224,18 -17,-3 -21,4 -25,52 -7,64 -18,88 -61,124 -35,29 -50,31 -97,11 z m 382,-291 c 60,-21 148,-101 256,-236 115,-142 136,-207 106,-312 -21,-71 -68,-124 -149,-170 -101,-55 -185,-77 -329,-83 -213,-10 -322,25 -410,130 -66,79 -90,130 -95,202 -6,74 7,108 82,216 149,211 365,312 539,253 z m -159,-904 c 39,0 106,7 149,15 44,8 81,13 83,11 6,-5 -71,-50 -112,-66 -16,-7 -66,-13 -110,-14 -72,-1 -87,2 -148,32 -37,18 -67,37 -67,41 0,4 30,2 68,-5 37,-7 99,-13 137,-14 z m -216,648 c -72,-68 -111,-126 -117,-173 -8,-76 35,-135 100,-135 36,0 104,39 116,66 7,14 12,68 12,120 0,92 -1,97 -29,125 -16,16 -33,29 -38,29 -5,0 -25,-15 -44,-32 z m 288,10 c -22,-21 -26,-34 -31,-123 -5,-89 -4,-104 14,-133 21,-33 71,-62 110,-62 92,0 133,121 70,208 -40,56 -114,132 -128,132 -6,0 -22,-10 -35,-22 z m 1898,151 c -4,-6 -5,-12 -2,-15 2,-3 7,2 10,11 7,17 1,20 -8,4 z"
             id="path34" />
        </g>
      </svg>
      <svg
         width="336"
         height="322"
         version="1.0"
         viewBox="0 0 336 322"
         id="svg44">
        <g
           fill="#191819"
           transform="matrix(0.1,0,0,-0.1,0,322)"
           id="g42">
          <path
             d="m 691,3099 c -52,-10 -71,-22 -153,-95 -109,-98 -210,-155 -378,-211 -39,-13 -54,-23 -51,-33 2,-8 6,-27 9,-42 4,-24 20,-36 117,-84 149,-73 197,-79 290,-35 102,47 126,42 161,-32 23,-50 23,-50 -2,-80 C 636,2430 580,2295 544,2149 491,1934 483,1906 426,1770 319,1516 307,1402 368,1227 442,1016 582,848 783,729 c 40,-24 59,-42 63,-59 3,-14 13,-56 24,-93 18,-69 18,-69 -11,-95 -35,-31 -48,-79 -49,-173 0,-85 14,-124 55,-149 38,-24 64,-25 91,-5 25,19 60,19 68,0 7,-20 78,-20 116,0 16,8 48,39 70,69 37,48 40,58 40,114 0,33 -4,72 -10,86 -8,23 -3,33 42,88 80,97 81,98 162,98 39,0 113,5 164,10 52,5 100,6 108,3 8,-3 30,-27 50,-54 36,-49 36,-49 12,-81 -19,-28 -24,-48 -26,-129 -4,-103 6,-137 50,-179 28,-26 78,-26 112,1 26,20 26,20 55,0 59,-42 127,-16 188,73 41,60 45,130 11,201 -22,45 -22,45 17,117 21,40 47,101 59,137 18,56 25,67 51,76 49,16 116,68 192,148 88,93 124,153 164,277 29,88 31,105 31,236 l 1,141 67,10 c 151,24 301,135 334,250 9,32 21,71 26,86 11,35 -18,110 -51,127 -44,24 -141,-22 -154,-72 -10,-41 24,-72 81,-74 65,-2 64,-1 64,-21 0,-70 -134,-177 -258,-207 -116,-29 -130,-29 -137,-4 -4,13 -43,99 -87,192 -43,93 -99,226 -123,295 -24,69 -55,156 -69,194 -32,84 -32,98 0,136 31,37 47,38 123,6 133,-56 195,-49 374,40 99,50 98,49 101,111 1,11 -24,24 -87,44 -132,42 -261,111 -367,195 -52,41 -115,81 -139,90 -117,40 -207,1 -288,-122 -18,-29 -38,-53 -43,-53 -5,0 -33,10 -62,23 -161,71 -453,110 -648,88 -97,-11 -201,-41 -277,-80 -23,-11 -46,-21 -51,-21 -5,0 -29,42 -55,93 -56,112 -78,142 -125,166 -50,25 -89,31 -141,20 z m 113,-102 c 13,-9 45,-60 71,-113 45,-94 47,-101 42,-161 -4,-34 -3,-65 2,-67 4,-3 37,16 73,42 137,100 275,142 467,142 242,-1 454,-49 589,-133 23,-15 43,-27 45,-27 1,0 21,34 42,77 22,42 56,93 76,115 32,34 41,38 85,38 56,0 79,-12 191,-101 70,-56 219,-138 302,-167 17,-6 31,-15 31,-20 0,-13 -92,-51 -154,-64 -46,-10 -56,-9 -95,11 -150,77 -233,57 -300,-72 l -23,-46 40,-103 c 22,-57 57,-152 77,-213 21,-60 75,-191 120,-290 45,-99 89,-205 96,-235 8,-32 14,-102 13,-170 -1,-166 -42,-290 -136,-418 -37,-49 -129,-126 -188,-157 -76,-39 -458,-135 -616,-154 -230,-28 -580,-21 -658,13 -185,82 -251,121 -334,199 -143,136 -241,344 -242,514 0,67 32,184 80,288 46,100 80,204 106,320 28,123 57,219 85,282 24,53 82,145 103,162 21,18 20,33 -5,73 -11,18 -34,55 -50,81 -51,83 -124,96 -233,41 -39,-20 -62,-25 -96,-22 -49,5 -160,51 -160,66 0,5 27,20 60,32 75,28 187,97 259,159 98,85 131,103 174,98 21,-3 48,-12 61,-20 z m 2252,-992 c 3,-13 4,-34 2,-46 -2,-20 -10,-24 -45,-27 -53,-4 -83,11 -83,43 0,25 21,41 69,55 35,9 50,2 57,-25 z M 2150,713 c 0,-5 -17,-45 -37,-89 l -38,-82 -90,5 c -73,5 -94,10 -113,27 -21,18 -57,75 -50,77 73,19 289,67 306,68 12,0 22,-2 22,-6 z M 1009,634 c 30,-8 90,-19 134,-22 44,-4 82,-11 83,-17 2,-5 -12,-28 -31,-50 l -34,-39 -69,16 c -38,9 -78,15 -89,12 -17,-5 -24,1 -36,28 -20,44 -29,88 -19,88 5,0 32,-7 61,-16 z m -7,1810 c -12,-8 -32,-34 -43,-57 -25,-48 -22,-137 6,-184 17,-29 17,-29 -73,-118 -94,-95 -185,-222 -202,-283 -5,-21 -10,-66 -10,-101 0,-120 99,-277 224,-356 25,-16 49,-38 52,-49 10,-31 105,-126 149,-149 28,-15 65,-22 126,-25 78,-4 92,-2 146,23 63,28 131,90 154,140 10,22 39,43 109,81 156,85 213,168 214,314 1,52 -5,99 -13,120 -23,55 -79,139 -137,206 -30,34 -54,66 -54,72 0,5 13,24 29,41 64,69 61,206 -8,285 -67,76 -161,8 -177,-128 l -7,-55 -51,22 c -41,17 -71,21 -158,21 h -108 v 38 c 0,82 -54,158 -112,158 -19,0 -44,-7 -56,-16 z m 399,-278 c 56,-20 114,-72 220,-198 118,-141 140,-182 147,-269 8,-109 -43,-194 -152,-254 -148,-82 -364,-114 -533,-79 -94,19 -160,51 -200,97 -91,104 -128,193 -117,280 12,97 191,318 306,379 81,43 131,56 213,57 44,0 96,-6 116,-13 z m 79,-881 c -7,-8 -42,-30 -79,-47 -60,-30 -75,-33 -161,-33 -89,0 -99,2 -157,34 -74,40 -81,56 -20,44 61,-12 337,-8 367,5 14,6 33,11 44,11 15,1 16,-2 6,-14 z m -473,603 c -23,-24 -56,-60 -72,-81 -55,-73 -32,-179 42,-200 41,-12 116,21 136,60 21,40 10,222 -15,246 -26,26 -44,21 -91,-25 z m 295,22 c -20,-19 -22,-30 -22,-128 1,-95 3,-110 23,-134 27,-32 94,-52 131,-38 57,21 82,109 50,173 -23,44 -124,147 -144,147 -9,0 -26,-9 -38,-20 z"
             id="path40" />
        </g>
      </svg>
    </g>
  </g>
</svg>
