<?xml version="1.0" encoding="UTF-8" standalone="no"?>
<svg
   version="1.1"
   viewBox="0 0 1000 1000"
   id="svg630"
   sodipodi:docname="bc23757f138a09a1ea040176fd1fd598.svg"
   inkscape:version="1.2.2 (b0a8486541, 2022-12-01)"
   width="1000"
   height="1000"
   xmlns:inkscape="http://www.inkscape.org/namespaces/inkscape"
   xmlns:sodipodi="http://sodipodi.sourceforge.net/DTD/sodipodi-0.dtd"
   xmlns="http://www.w3.org/2000/svg"
   xmlns:svg="http://www.w3.org/2000/svg">
  <defs
     id="defs634" />
  <sodipodi:namedview
     id="namedview632"
     pagecolor="#ffffff"
     bordercolor="#666666"
     borderopacity="1.0"
     inkscape:showpageshadow="2"
     inkscape:pageopacity="0.0"
     inkscape:pagecheckerboard="0"
     inkscape:deskcolor="#d1d1d1"
     showgrid="false"
     inkscape:zoom="0.92314815"
     inkscape:cx="500.46138"
     inkscape:cy="540.54162"
     inkscape:window-width="2296"
     inkscape:window-height="2126"
     inkscape:window-x="1920"
     inkscape:window-y="26"
     inkscape:window-maximized="1"
     inkscape:current-layer="svg630" />
  <path
     fill="#9f201b"
     d="m 704.07,595.67 q -1.44,0.24 -1.29,0.91 -24.16,-9.56 -41.41,-24.2 -12.08,-10.25 -20.01,-24.66 c -7.35,-13.36 -13.79,-24.73 -23.01,-35.73 q -11.46,-13.68 -27.77,-20.96 c -0.58,-0.26 -1.71,-0.53 -2.34,-0.45 q -8.08,0.99 -15.85,1.39 -24.75,1.29 -48.75,-0.12 -3.03,-0.18 -0.29,1.13 c 9.01,4.31 16.2,10.46 21.34,19.11 q 5.76,9.7 7.61,21.54 1.19,7.62 1.31,15.17 0.06,3.84 -0.48,7.98 -0.51,3.86 -1.08,8.25 -1.45,11.1 -5.77,26.51 -5.44,19.39 -7.24,40.65 c -1.02,11.97 -0.43,24.03 -0.31,35.85 q 0.12,12.43 -1.56,20.72 -2.36,11.65 -8.09,24.09 -4.84,10.5 -9.76,17.91 c -10.77,16.25 -28.59,26.83 -47.73,31.14 -41.27,9.3 -90.9,-7.56 -108.7,-48.74 q -0.9,-2.07 -0.97,0.19 c -0.55,19.12 3.73,37.49 10.68,55.3 q 5.14,13.2 10.78,24.14 4.53,8.77 9,19.95 c 3.86,9.61 6.9,19.63 7.19,29.61 q 0.14,4.88 -0.36,8.19 c -1.39,9.34 -5.25,18.78 -8.56,28 q -5.02,13.99 -4.29,29.41 -0.4,-0.26 -1.36,0.75 -0.46,-3.04 -0.44,-4.71 0.16,-13.1 3.99,-24.57 2.41,-7.24 5.4,-15.27 c 5.45,-14.61 4.68,-28.5 -0.3,-43.14 q -3.77,-11.1 -9.24,-22.01 c -10.29,-20.53 -18.98,-40.7 -22.67,-62.68 q -1.23,-7.27 -1.36,-13.17 c -0.12,-5.07 -0.06,-10.31 -0.34,-15.65 q -0.05,-1.14 -0.32,-2.3 c -8.67,-37.24 -7.83,-75.64 3.74,-111.92 2.65,-8.34 6.25,-16.77 9.94,-24.86 q 0.28,-0.63 -0.39,-0.8 c -39.42,-10.34 -72.1,-41.17 -93.61,-75 q -0.3,-0.47 -0.44,-1.11 1.35,0.41 1.14,-0.6 4.23,6.48 10.09,14.4 20.44,27.62 48.57,45.71 2.97,1.9 6.62,3.84 3.38,1.8 6.84,3.51 9.18,4.53 21.36,7.77 a 1.01,1 20.3 0 0 1.16,-0.53 q 8.43,-16.9 19.8,-32.32 l 3.13,-4.31 q 0.05,-0.08 0.13,-0.02 l 0.21,0.16 q 0.27,0.2 0.08,0.47 -10.35,15.22 -19.83,32.28 -0.06,0.11 0.04,0.17 l 0.41,0.25 q 0.22,0.13 0.35,-0.09 c 7.6,-12.34 15.69,-22.72 25.95,-34 2.06,-2.26 4.3,-4.06 6.4,-6.26 q 2.29,-2.4 4.76,-4.44 12.53,-10.4 25.53,-18.14 a 0.41,0.41 0 0 0 -0.1,-0.75 q -10.75,-2.93 -19.33,-10.86 -0.4,-0.36 -0.93,-0.32 -15.64,1.25 -29.23,-1.57 -12.58,-2.6 -23.8,-6.21 -16.78,-5.4 -31.55,-17.16 -4.1,-3.27 -7.82,-7.27 0.82,-0.55 0.67,-1.27 11.55,11.57 22.68,16.98 6.58,3.2 13.78,6.44 0.9,0.4 1.81,0.35 0.85,-0.05 0.1,-0.46 c -8.19,-4.38 -15.43,-10.22 -20.66,-17.59 -10.17,-14.33 -17.82,-29.39 -18.61,-46.91 q -0.28,-6.27 0.97,-16.77 1.02,-8.62 1.67,-16 c 1.91,-21.5 -1.13,-42.94 -8.24,-63.36 -10,-28.7 -14.7,-57.32 -12.34,-86.45 q 0.06,-0.76 -0.7,-0.68 -27.53,2.83 -49.14,-13.49 -4.56,-3.45 -9.8,-7.94 -13.68,-11.74 -29.91,-16.31 c -11.25,-3.17 -24.49,-2.5 -33.19,3.68 -2.64,1.88 -5.87,1.32 -7.53,-1.67 -2.71,-4.83 -0.3,-12.46 2.1,-16.99 q 5.62,-10.58 15.79,-20.21 31.43,-29.75 75.44,-36.49 c 29.14,-4.47 59.56,-0.69 87.29,9.79 q 0.55,0.21 0.99,-0.19 c 26.23,-23.52 57.58,-40.48 90.93,-51.7 q 9.63,-3.24 19.21,-5.12 c 44.98,-8.84 93.13,-8.37 136.22,8.5 q 0.55,0.21 0.96,-0.21 c 3.93,-4.11 7.81,-8.35 12.08,-12.04 q 22.64,-19.54 51.43,-27.88 13.58,-3.93 31.88,-7.28 16.14,-2.95 34.03,-3.96 c 18.45,-1.05 39.69,0.29 55.92,7.85 8.3,3.86 17.47,11.6 14.57,21.41 -1.1,3.74 -6.78,3.84 -9.84,4.66 -8.88,2.39 -15.54,9.43 -20.72,16.7 -8.27,11.6 -14.79,25.52 -19.93,38.54 q -8.67,21.98 -17.62,43.92 -6.02,14.79 -12.27,26.85 -3.5,6.77 -8.26,12.74 a 1.41,1.45 53.7 0 0 -0.23,1.39 q 19.01,53.23 7.12,109.07 c -4.69,22.05 -12,42.4 -19.21,63.51 q -3.19,9.35 -7.35,24.89 -3.11,11.62 -10.65,26.26 c -19.45,37.74 -55.47,56.12 -96.61,62.13 q -1.4,0.21 -0.12,0.81 c 17.55,8.25 30.26,23.3 40.07,40.25 q 6.84,11.82 12.94,22.17 c 6.04,10.26 16.08,19 26.65,26.31 q 12.88,8.91 30.76,16.22 z M 583.97,123.64 q 8.05,-21.91 23.77,-40.28 0.55,-0.65 -0.24,-0.94 -15.14,-5.59 -31.42,-8.99 -29.46,-6.15 -61.31,-4.09 -5.28,0.35 -10.05,0.7 -16.64,1.25 -32.43,4.38 -17.47,4.04 -36.34,11.79 c -32.4,13.31 -61.56,31.48 -84.81,56.93 -26.94,29.49 -40.43,66.59 -39.33,106.94 0.56,20.61 4.67,40.22 11.06,60.19 q 5.62,17.54 5.98,19.11 5.72,24.69 4.54,44.26 -0.47,7.92 -2.22,21.68 -1.39,11.04 -0.7,19.02 1.46,16.65 10.05,31.86 4.06,7.34 8.91,13.6 5.14,6.63 12.57,11.73 5.7,4.58 12.62,7.37 10.09,4.07 20.76,5.95 c 8.02,1.42 16.46,1.33 24.62,1.2 a 0.63,0.64 73.2 0 0 0.53,-0.98 q -1.74,-2.69 -2.92,-5.36 -0.01,-0.01 0,-0.01 l 0.26,-0.13 q 0.12,-0.06 0.19,0.06 4.31,7.59 12.39,12.42 13.37,7.99 27.27,6.15 13.1,-1.73 23.76,-9.11 3.12,-2.16 7.32,-7.36 0.12,-0.15 0.28,-0.02 l 0.25,0.21 a 0.39,0.39 0 0 1 0.05,0.55 l -4.54,5.34 a 0.32,0.32 0 0 0 0.23,0.53 q 18.2,0.78 36.43,1.95 17.81,1.14 45.3,0.36 c 16.68,-0.48 33.49,-2.73 49.35,-6.99 q 18.53,-4.99 34.76,-14.98 20.84,-12.83 34.09,-34.29 10.05,-16.3 14.77,-33.72 5.46,-20.13 12.04,-38.9 c 3.17,-9.05 5.29,-15.59 7.83,-23.71 q 7.42,-23.72 9.95,-48.35 C 732.51,261.24 728.8,232.5 719.2,205.5 a 0.75,0.75 0 0 0 -1.2,-0.32 q -5.86,5.1 -13.34,7.2 -1.49,0.41 -0.15,-0.36 c 6.2,-3.61 11.95,-6.51 16.59,-12.35 q 5.33,-6.71 10.95,-19.38 5.72,-12.9 10.04,-23.6 9.19,-22.74 17.87,-44.57 6.02,-15.16 14.45,-28.16 c 5.83,-8.99 12.89,-17.79 23.13,-21.29 2.51,-0.86 5.13,-1.06 7.73,-1.69 3.41,-0.81 3.1,-4.01 2.86,-7.29 q -1.85,-6.44 -7.79,-10.78 -9.38,-5.96 -19.34,-8.26 -16.98,-3.9 -36.13,-3.31 -31.75,0.99 -66.43,10.09 -57.27,15.02 -86.49,66.58 -2.47,4.35 -7.98,15.63 z m -401.85,58.85 q -2.48,6.03 0.3,11.29 2.06,1.86 3.55,0.96 5.19,-3.12 9,-4.48 c 10.83,-3.86 25.01,-1.73 35.26,2.79 q 11.49,5.06 20.73,12.66 5.12,4.23 9.49,7.76 c 13.36,10.81 32.45,16.99 49.83,14.41 a 1.05,1.04 0.3 0 0 0.89,-0.87 l 2.18,-13.89 1.75,-7.86 a 0.42,0.43 86.4 0 0 -0.56,-0.49 c -16.88,6.08 -34.38,-0.92 -48.11,-10.76 q -8.66,-6.2 -18.16,-12.96 c -9.18,-6.53 -19.29,-11.96 -30.79,-12.39 q -2.32,-0.08 -4.91,1.1 -6.11,2.78 -12.06,5.8 -0.21,-0.29 -0.07,-0.55 6.96,-4.56 12.77,-7.32 c 36.17,-17.21 81.3,-23.29 115.18,3.04 q 0.48,0.37 0.78,-0.15 11.79,-20.17 28.38,-36.43 l 2.33,-2.45 q 0.38,-0.4 -0.14,-0.59 C 305.33,110.9 242.6,116.75 199.38,157.87 c -7.04,6.7 -13.87,15.1 -17.26,24.62 z m 40.55,-16.84 q -1,-0.01 -2.1,0.46 -1.82,0.77 0.14,1.05 10.32,1.44 19.76,6.97 c 10.16,5.95 18.68,12.73 27.91,19.24 q 8.12,5.74 17.28,8.64 11.88,5.33 24.62,2.23 2.4,-0.58 4.87,-0.93 a 1.28,1.27 3.1 0 0 1.06,-0.95 q 3.84,-14.89 11.33,-28.24 a 2.29,2.29 0 0 0 -0.67,-2.98 q -18.21,-13.09 -39.52,-15.87 -9.29,-1.2 -16.26,-0.84 -7.77,0.41 -14.78,1.45 -8.26,1.22 -19.18,4.26 -6.08,1.7 -14.46,5.51 z M 414.2,522.44 q -0.22,0.09 -0.44,0.14 -0.51,0.12 -0.89,0.47 -18.93,17.62 -32.14,39.25 c -4.35,7.11 -9.19,14.93 -12.38,22.7 q -6.57,16.05 -10.03,37.09 -6.01,36.51 1.61,75.65 3.66,18.82 15.51,32.77 c 28.66,33.73 82.5,42.23 120.52,20.03 q 14.45,-8.44 22.94,-22.3 6.07,-9.91 11.19,-22.12 7.04,-16.81 6.93,-33.4 -0.03,-5.18 -0.34,-16.75 c -0.31,-11.4 0.05,-22.73 1.63,-33.95 q 2.36,-16.77 6.69,-32.45 3.03,-11 4.44,-18.78 2.16,-11.92 1.95,-26.24 -0.16,-11.24 -3.14,-20.39 -7.31,-22.43 -29.22,-31.46 -2.82,-1.16 -6.24,-1.3 -14.6,-0.63 -28.48,-1.52 -0.57,-0.04 -1.08,0.23 -2.32,1.27 -4.76,2.76 c -2.1,1.28 -4.53,2.28 -6.8,3.26 q -12.4,5.31 -24.64,3.57 c -2.24,-0.32 -4.2,0.97 -6.05,2.09 q -12.32,7.45 -23.4,17.29 -1.65,1.47 -3.07,3.12 -0.13,0.15 -0.31,0.24 z"
     id="path388" />
  <path
     fill="#feddd6"
     d="m 800.34,42.91 q 0.12,0.76 0.01,0.84 a 0.99,0.99 0 0 1 -1,0.07 q -5.34,-2.69 -10.52,-4.08 c -9.79,-2.63 -20,-4.34 -30.25,-4.57 q -22.92,-0.5 -44.48,3.38 -23.34,4.2 -40.71,9.8 -33.64,10.85 -60.09,38.96 -9.44,10.02 -18.75,24.05 c -6.27,9.45 -11.37,18.46 -15.16,29.09 a 0.47,0.47 0 0 1 -0.7,0.24 q -0.02,-0.01 0.01,-0.99 l 5.27,-16.06 q 5.51,-11.28 7.98,-15.63 29.22,-51.56 86.49,-66.58 34.68,-9.1 66.43,-10.09 19.15,-0.59 36.13,3.31 9.96,2.3 19.34,8.26 z"
     id="path390" />
  <path
     fill="#fea39e"
     d="m 800.34,42.91 q 5.94,4.34 7.79,10.78 0.1,0.94 -0.08,1.44 -0.16,0.44 -0.62,0.35 -2.11,-0.44 -4.4,0.16 c -2.65,0.69 -5.44,0.36 -8.08,1.07 q -11.22,3.03 -19.23,10.36 c -3.18,2.92 -6.66,6.19 -9.2,9.72 q -9.97,13.84 -16.02,27.34 -3.46,7.73 -6.62,15.24 c -3.83,9.09 -6.65,18.08 -10.03,27.32 -5.96,16.34 -14.54,31.38 -26.94,43.43 q -9.7,9.44 -22.47,13.53 a 1.42,1.42 0 0 0 -0.9,1.83 c 6.91,19.07 8.45,40.91 5.91,60.79 q -2.06,16.19 -5.32,28.05 c -3.68,13.41 -8.02,26.91 -12.76,40.1 q -4.91,13.7 -8.29,26.07 c -1.57,5.72 -2.76,11.91 -3.12,17.75 q -0.59,9.69 -2.16,17.37 c -7.02,34.24 -37.66,56.08 -69.22,67.52 q -15.77,5.72 -31.53,8.72 -17.46,3.33 -30,4.56 -12.66,1.25 -33.41,2.04 -1.97,0.07 -4.1,0.97 -1.74,0.73 -3.92,1.44 -1.24,0.4 -1.92,1.78 -0.22,0.45 -0.69,0.62 -7.46,2.75 -13.71,4.4 -11,2.9 -25.24,1.06 c -4.9,-0.64 -9.83,-2.27 -14.53,-3.96 q -3.29,-1.18 -10.79,-6.48 c -2.17,-1.54 -3.86,0.04 -6.06,0.24 q -18.72,1.66 -34.81,-2.16 -4.6,-1.09 -9.96,-3.55 c -1.92,-0.88 -3.87,-0.9 -5.91,-1.28 q -7.43,-5.1 -12.57,-11.73 -4.85,-6.26 -8.91,-13.6 1,-1.07 -0.09,-2.95 -1.04,-1.8 -1.28,-2.46 c -3.06,-8.3 -6.39,-16.85 -5.57,-25.89 0.49,-5.47 0.52,-10.76 1.41,-16.18 q 2.2,-13.45 2.79,-24.4 0.71,-13.08 -0.58,-28.16 -0.83,-9.8 -3.48,-19.22 -2.83,-10.08 -7.22,-21.9 -8.02,-21.61 -9.46,-44.96 -0.85,-13.84 -0.17,-24.58 1.43,-22.52 9.08,-42.53 10.84,-28.35 33.05,-51.76 16.09,-16.95 42.57,-34.21 c 20.52,-13.37 43.53,-23.35 67.34,-30.33 1.29,-0.38 2.31,-1.05 3.57,-1.38 q 0.58,-0.14 0.22,-0.62 -0.15,-0.21 -0.41,-0.25 15.79,-3.13 32.43,-4.38 9.5,2.19 19.15,4.86 c 5.7,1.58 11.11,3.97 16.4,6.49 q 15.4,7.36 25.36,20.54 c 6.28,8.32 10.36,20.09 10.96,30.26 q 0.11,1.71 0.69,3.35 0.83,2.35 -0.05,5.8 a 0.27,0.27 0 0 0 0.16,0.32 q 0.14,0.06 0.27,0.11 0.11,0.04 0.11,-0.07 0,-1.19 0.93,-2 -0.03,0.98 -0.01,0.99 a 0.47,0.47 0 0 0 0.7,-0.24 c 3.79,-10.63 8.89,-19.64 15.16,-29.09 q 9.31,-14.03 18.75,-24.05 26.45,-28.11 60.09,-38.96 17.37,-5.6 40.71,-9.8 21.56,-3.88 44.48,-3.38 c 10.25,0.23 20.46,1.94 30.25,4.57 q 5.18,1.39 10.52,4.08 a 0.99,0.99 0 0 0 1,-0.07 q 0.11,-0.08 -0.01,-0.84 z M 776.42,57 q 0.24,-0.03 0,-0.04 -27.08,-0.86 -51.71,4.75 c -29.7,6.77 -58.01,21.53 -72.1,49.44 -10.47,20.76 -17.16,46.73 -3.71,67.87 2.15,3.37 4.99,6.39 8.64,8.12 q 12.25,5.78 25.31,1.88 9.22,-2.75 16.83,-10.27 8.78,-8.68 14.42,-18.18 7.77,-13.07 12.59,-26.55 5.86,-16.35 10.94,-31.17 c 5.82,-16.94 14.05,-32.91 27.95,-44.51 q 0.37,-0.31 0.85,-0.34 4.71,-0.24 9.99,-1 z M 502.11,234.24 c 14.86,-9.5 32.54,-7.04 44.06,6.25 q 1.17,1.36 0.91,-0.42 c -1.79,-12.21 -9.27,-27.3 -24.31,-24.04 -9.01,1.94 -16.58,10.07 -21.14,17.74 q -0.74,1.25 0.48,0.47 z m -172.95,45.12 c 6.49,-12.11 21.16,-17.49 34.61,-17.43 q 1.23,0.01 0.29,-0.79 c -7.37,-6.24 -20.24,-14.35 -28.73,-4.72 -5.05,5.73 -6.68,15.27 -6.78,22.78 q -0.02,1.34 0.61,0.16 z m 167.54,33.88 c -0.26,20.36 8.76,46.58 29.76,54.51 q 2.81,1.06 5.6,0.39 2.66,0.63 5.64,-0.21 1.31,-0.38 2.66,-0.61 1.39,-0.24 2.68,-0.89 5.52,-2.79 9.12,-7.81 0.1,-0.13 0.26,-0.16 0.13,-0.02 0.25,-0.07 0.25,-0.11 0.33,-0.37 l 0.72,-2.45 a 1.08,1.05 83.6 0 1 0.47,-0.61 q 2.45,-1.49 3.01,-4.4 1.64,-2.53 2.79,-6.56 c 5.4,-18.94 2.35,-39.8 -8.17,-56.27 q 0,-1.15 -0.42,-1.61 -0.4,-0.46 0.02,-0.9 1.28,-1.33 -0.23,-2.94 -1.08,-1.15 -1.74,-2.51 -0.57,-1.16 -1.35,-2.12 -1.67,-2.06 -5.83,-6.17 c -4.86,-4.81 -11.76,-8.94 -18.53,-9.09 -8.27,-0.18 -15.98,4.93 -20.07,11.72 q -4.95,8.24 -6.91,17.54 -0.31,1.49 -0.62,5.78 -0.16,2.23 -0.56,5.81 -0.43,3.77 1.12,10 z m -156.84,24.24 q 1.9,14.11 8.5,26.42 4.51,8.43 11.96,14.26 4.86,3.81 10.63,3.48 l 7.53,-1.4 q 0.51,-0.09 0.82,-0.51 0.19,-0.24 0.46,-0.38 0.48,-0.24 1.01,-0.25 1.04,-0.01 1.48,-0.94 1.54,-3.2 2.37,-7.3 0.17,-0.85 -0.42,-0.22 -0.4,0.41 -0.72,-0.06 c 1.94,-1.73 4.1,-3.37 4.71,-6.09 3.92,-17.36 -0.36,-36.27 -10.05,-50.97 q -0.65,-3.94 -2.92,-6.98 -2.53,-3.42 -5.01,-6.12 c -3.87,-4.23 -10.87,-8.55 -16.8,-7.24 q -7.48,1.64 -10.22,7.21 c -2.29,4.64 -4.56,9.74 -4.96,15.12 q -0.27,3.74 -0.06,8.11 0.39,8.13 1.69,13.86 z m 85.91,110.25 3.15,0.41 q 0.48,0.06 0.43,0.54 -0.42,3.91 -0.65,5.2 c -1.32,7.44 -0.22,17.81 5.36,23.31 7.5,7.4 20.26,5.22 28.78,1.42 q 27,-12.06 35.33,-40.6 3.46,-11.85 1.18,-26.47 l -0.45,-2.95 -1.28,-7.34 a 0.52,0.52 0 0 1 0.77,-0.54 q 3.22,1.84 5.49,5.13 0.05,0.08 0.13,0.03 v 0 q 0.15,-0.08 0.08,-0.23 -4.99,-10.62 -16.1,-6.36 -0.05,0.02 -0.04,0.08 l 0.08,0.24 q 0.11,0.37 0.48,0.27 2.98,-0.78 6.03,-0.38 a 0.93,0.93 0 0 1 0.76,1.21 l -1.87,5.78 q -3.61,1.41 -4.51,2.71 -4.31,6.22 -8.82,9.82 -8.19,6.52 -19.38,5.54 a 0.62,0.62 0 0 1 -0.58,-0.6 l -0.03,-0.54 c 6.51,-14.61 6.99,-31.99 -8.46,-40.86 -10.03,-5.75 -23.64,-3.17 -34.34,-1.51 q -14.25,2.21 -25.99,9.28 -1.51,0.91 -0.51,-0.55 c 4.57,-6.69 5.96,-15.95 5.5,-24.27 q -0.08,-1.37 -0.17,0 -0.25,4.15 -0.97,8.59 c -1.44,8.84 -5.12,16.12 -11.19,22.36 q -5.2,5.34 -7.72,13.4 -3.57,11.4 3.22,21.31 4.51,6.58 15.08,11.44 14.38,6.61 31.21,5.13 z"
     id="path392" />
  <path
     fill="#ff857e"
     d="m 808.13,53.69 c 0.24,3.28 0.55,6.48 -2.86,7.29 -2.6,0.63 -5.22,0.83 -7.73,1.69 -10.24,3.5 -17.3,12.3 -23.13,21.29 q -8.43,13 -14.45,28.16 -8.68,21.83 -17.87,44.57 -4.32,10.7 -10.04,23.6 -5.62,12.67 -10.95,19.38 c -4.64,5.84 -10.39,8.74 -16.59,12.35 q -1.34,0.77 0.15,0.36 7.48,-2.1 13.34,-7.2 a 0.75,0.75 0 0 1 1.2,0.32 c 9.6,27 13.31,55.74 10.39,84.21 q -2.53,24.63 -9.95,48.35 c -2.54,8.12 -4.66,14.66 -7.83,23.71 q -6.58,18.77 -12.04,38.9 -4.72,17.42 -14.77,33.72 -13.25,21.46 -34.09,34.29 -16.23,9.99 -34.76,14.98 c -15.86,4.26 -32.67,6.51 -49.35,6.99 q -27.49,0.78 -45.3,-0.36 -18.23,-1.17 -36.43,-1.95 a 0.32,0.32 0 0 1 -0.23,-0.53 l 4.54,-5.34 a 0.39,0.39 0 0 0 -0.05,-0.55 l -0.25,-0.21 q -0.16,-0.13 -0.28,0.02 -4.2,5.2 -7.32,7.36 -10.66,7.38 -23.76,9.11 -13.9,1.84 -27.27,-6.15 -8.08,-4.83 -12.39,-12.42 -0.07,-0.12 -0.19,-0.06 l -0.26,0.13 q -0.01,0 0,0.01 1.18,2.67 2.92,5.36 a 0.63,0.64 73.2 0 1 -0.53,0.98 c -8.16,0.13 -16.6,0.22 -24.62,-1.2 q -10.67,-1.88 -20.76,-5.95 -6.92,-2.79 -12.62,-7.37 c 2.04,0.38 3.99,0.4 5.91,1.28 q 5.36,2.46 9.96,3.55 16.09,3.82 34.81,2.16 c 2.2,-0.2 3.89,-1.78 6.06,-0.24 q 7.5,5.3 10.79,6.48 c 4.7,1.69 9.63,3.32 14.53,3.96 q 14.24,1.84 25.24,-1.06 6.25,-1.65 13.71,-4.4 0.47,-0.17 0.69,-0.62 0.68,-1.38 1.92,-1.78 2.18,-0.71 3.92,-1.44 2.13,-0.9 4.1,-0.97 20.75,-0.79 33.41,-2.04 12.54,-1.23 30,-4.56 15.76,-3 31.53,-8.72 c 31.56,-11.44 62.2,-33.28 69.22,-67.52 q 1.57,-7.68 2.16,-17.37 c 0.36,-5.84 1.55,-12.03 3.12,-17.75 q 3.38,-12.37 8.29,-26.07 c 4.74,-13.19 9.08,-26.69 12.76,-40.1 q 3.26,-11.86 5.32,-28.05 c 2.54,-19.88 1,-41.72 -5.91,-60.79 a 1.42,1.42 0 0 1 0.9,-1.83 q 12.77,-4.09 22.47,-13.53 c 12.4,-12.05 20.98,-27.09 26.94,-43.43 3.38,-9.24 6.2,-18.23 10.03,-27.32 q 3.16,-7.51 6.62,-15.24 6.05,-13.5 16.02,-27.34 c 2.54,-3.53 6.02,-6.8 9.2,-9.72 q 8.01,-7.33 19.23,-10.36 c 2.64,-0.71 5.43,-0.38 8.08,-1.07 q 2.29,-0.6 4.4,-0.16 0.46,0.09 0.62,-0.35 0.18,-0.5 0.08,-1.44 z"
     id="path394" />
  <path
     fill="#9f201b"
     d="m 776.42,57 q -5.28,0.76 -9.99,1 -0.48,0.03 -0.85,0.34 c -13.9,11.6 -22.13,27.57 -27.95,44.51 q -5.08,14.82 -10.94,31.17 -4.82,13.48 -12.59,26.55 -5.64,9.5 -14.42,18.18 -7.61,7.52 -16.83,10.27 -13.06,3.9 -25.31,-1.88 c -3.65,-1.73 -6.49,-4.75 -8.64,-8.12 -13.45,-21.14 -6.76,-47.11 3.71,-67.87 14.09,-27.91 42.4,-42.67 72.1,-49.44 q 24.63,-5.61 51.71,-4.75 0.24,0.01 0,0.04 z m -24.41,2.52 q -3.93,0.24 -7.8,0.43 -3.09,0.16 -5.7,0.64 -3.02,0.56 -5.96,1.03 c -2.37,0.38 -4.55,1.22 -6.92,1.65 -4.33,0.78 -8.65,2.3 -12.97,3.59 q -15.54,4.64 -28.26,12.5 -5.67,3.5 -10.85,7.89 -4.7,3.98 -9.37,9.77 -2.18,2.69 -4.53,5.68 -2.22,2.82 -3.66,5.76 -6.94,14.11 -8.61,19.4 -2.66,8.39 -3.75,15.81 c -1.59,10.86 -0.06,21.74 4.95,31.8 q 1,2.01 2.32,3.7 1.76,2.27 3.14,3.37 10.81,8.7 26.48,5.44 2.02,-0.42 4.01,-1.09 2.19,-0.74 3.92,-1.77 1.54,-0.91 3.11,-1.67 1.63,-0.79 3,-1.96 3.53,-3 6.22,-6.82 4.38,-3.9 7.65,-8.51 9.41,-13.26 15.75,-30.07 4.63,-12.26 9.22,-26.21 c 4.73,-14.41 10,-27.75 18.18,-39.02 q 4.03,-5.56 9.42,-10.92 0.28,-0.28 0.67,-0.32 l 0.31,-0.03 q 0.7,-0.07 0.21,-0.57 -0.43,-0.45 -0.94,-0.38 -4.66,0.7 -9.24,0.88 z"
     id="path396" />
  <path
     fill="#e45d5a"
     d="m 700.78,174.67 q -2.6,0.58 -4.76,1.88 -1.55,0.93 -3.1,1.59 -1.69,0.72 -3.31,1.48 -5.61,2.63 -12.91,2.17 c -14.04,-0.87 -18.32,-13.16 -17.75,-25.44 0.57,-12.18 4.27,-23.6 9.15,-34.87 13.2,-30.46 41.42,-50.44 73.4,-58.74 3.5,-0.91 6.9,-2.38 10.51,-3.22 q 4.58,-0.18 9.24,-0.88 0.51,-0.07 0.94,0.38 0.49,0.5 -0.21,0.57 l -0.31,0.03 q -0.39,0.04 -0.67,0.32 -5.39,5.36 -9.42,10.92 c -8.18,11.27 -13.45,24.61 -18.18,39.02 q -4.59,13.95 -9.22,26.21 -6.34,16.81 -15.75,30.07 -3.27,4.61 -7.65,8.51 z"
     id="path398" />
  <path
     fill="#d93f3d"
     d="m 752.01,59.52 c -3.61,0.84 -7.01,2.31 -10.51,3.22 -31.98,8.3 -60.2,28.28 -73.4,58.74 -4.88,11.27 -8.58,22.69 -9.15,34.87 -0.57,12.28 3.71,24.57 17.75,25.44 q 7.3,0.46 12.91,-2.17 1.62,-0.76 3.31,-1.48 1.55,-0.66 3.1,-1.59 2.16,-1.3 4.76,-1.88 -2.69,3.82 -6.22,6.82 -1.37,1.17 -3,1.96 -1.57,0.76 -3.11,1.67 -1.73,1.03 -3.92,1.77 -1.99,0.67 -4.01,1.09 -15.67,3.26 -26.48,-5.44 -1.38,-1.1 -3.14,-3.37 -1.32,-1.69 -2.32,-3.7 c -5.01,-10.06 -6.54,-20.94 -4.95,-31.8 q 1.09,-7.42 3.75,-15.81 1.67,-5.29 8.61,-19.4 1.44,-2.94 3.66,-5.76 2.35,-2.99 4.53,-5.68 4.67,-5.79 9.37,-9.77 5.18,-4.39 10.85,-7.89 12.72,-7.86 28.26,-12.5 c 4.32,-1.29 8.64,-2.81 12.97,-3.59 2.37,-0.43 4.55,-1.27 6.92,-1.65 q 2.94,-0.47 5.96,-1.03 2.61,-0.48 5.7,-0.64 3.87,-0.19 7.8,-0.43 z"
     id="path400" />
  <path
     fill="#ff857e"
     d="m 583.97,123.64 -5.27,16.06 q -0.93,0.81 -0.93,2 0,0.11 -0.11,0.07 -0.13,-0.05 -0.27,-0.11 a 0.27,0.27 0 0 1 -0.16,-0.32 q 0.88,-3.45 0.05,-5.8 -0.58,-1.64 -0.69,-3.35 c -0.6,-10.17 -4.68,-21.94 -10.96,-30.26 Q 555.67,88.75 540.27,81.39 c -5.29,-2.52 -10.7,-4.91 -16.4,-6.49 q -9.65,-2.67 -19.15,-4.86 4.77,-0.35 10.05,-0.7 31.85,-2.06 61.31,4.09 16.28,3.4 31.42,8.99 0.79,0.29 0.24,0.94 -15.72,18.37 -23.77,40.28 z"
     id="path402" />
  <path
     fill="#feddd6"
     d="m 472.29,74.42 q 0.26,0.04 0.41,0.25 0.36,0.48 -0.22,0.62 c -1.26,0.33 -2.28,1 -3.57,1.38 -23.81,6.98 -46.82,16.96 -67.34,30.33 q -26.48,17.26 -42.57,34.21 -22.21,23.41 -33.05,51.76 -7.65,20.01 -9.08,42.53 -0.68,10.74 0.17,24.58 1.44,23.35 9.46,44.96 4.39,11.82 7.22,21.9 2.65,9.42 3.48,19.22 1.29,15.08 0.58,28.16 -0.59,10.95 -2.79,24.4 c -0.89,5.42 -0.92,10.71 -1.41,16.18 -0.82,9.04 2.51,17.59 5.57,25.89 q 0.24,0.66 1.28,2.46 1.09,1.88 0.09,2.95 -8.59,-15.21 -10.05,-31.86 -0.69,-7.98 0.7,-19.02 1.75,-13.76 2.22,-21.68 1.18,-19.57 -4.54,-44.26 -0.36,-1.57 -5.98,-19.11 c -6.39,-19.97 -10.5,-39.58 -11.06,-60.19 -1.1,-40.35 12.39,-77.45 39.33,-106.94 23.25,-25.45 52.41,-43.62 84.81,-56.93 q 18.87,-7.75 36.34,-11.79 z"
     id="path404" />
  <path
     fill="#feddd6"
     d="m 357.55,134.15 q -2.28,-1.37 -4.11,-1.82 c -4.51,-1.11 -8.72,-2.53 -13.26,-3.47 q -19.49,-4 -29.08,-4.86 -10.63,-0.96 -22.76,-0.38 -36.22,1.7 -66.1,20.63 -20.33,12.88 -35.04,31.97 -0.02,0.03 -2.08,3.26 -1.22,1.9 -3,3.01 c 3.39,-9.52 10.22,-17.92 17.26,-24.62 43.22,-41.12 105.95,-46.97 160.36,-26.76 q 0.52,0.19 0.14,0.59 z"
     id="path406" />
  <path
     fill="#fea39e"
     d="m 357.55,134.15 q -16.59,16.26 -28.38,36.43 -0.3,0.52 -0.78,0.15 C 294.51,144.4 249.38,150.48 213.21,167.69 q -5.81,2.76 -12.77,7.32 l -2.16,1.21 q -0.58,0.33 0.09,0.3 1.08,-0.04 2.14,-0.96 5.95,-3.02 12.06,-5.8 2.59,-1.18 4.91,-1.1 c 11.5,0.43 21.61,5.86 30.79,12.39 q 9.5,6.76 18.16,12.96 c 13.73,9.84 31.23,16.84 48.11,10.76 a 0.42,0.43 86.4 0 1 0.56,0.49 l -1.75,7.86 q -12.87,2.24 -25.22,0.58 -6.44,-0.87 -12.31,-3.06 c -7.66,-2.87 -14.29,-8.04 -20.89,-13.07 -12.36,-9.43 -26.53,-14.79 -42.38,-14.88 q -5.56,-0.03 -11.25,1.28 -6.11,1.41 -10.5,3.35 -4.45,1.97 -8.38,6.46 -2.78,-5.26 -0.3,-11.29 1.78,-1.11 3,-3.01 2.06,-3.23 2.08,-3.26 14.71,-19.09 35.04,-31.97 29.88,-18.93 66.1,-20.63 12.13,-0.58 22.76,0.38 9.59,0.86 29.08,4.86 c 4.54,0.94 8.75,2.36 13.26,3.47 q 1.83,0.45 4.11,1.82 z"
     id="path408" />
  <path
     fill="#d93f3d"
     d="m 285.66,202.01 q 8.93,0.91 17.09,-1.28 4.04,-1.08 7.02,-3.87 c 5.69,-5.32 3.55,-14.34 -1.58,-19.09 -8,-7.4 -18.19,-10.99 -29.18,-12.85 q -12.24,-2.07 -23.51,-1.87 -10.79,0.2 -32.83,2.6 8.38,-3.81 14.46,-5.51 10.92,-3.04 19.18,-4.26 7.01,-1.04 14.78,-1.45 6.97,-0.36 16.26,0.84 21.31,2.78 39.52,15.87 a 2.29,2.29 0 0 1 0.67,2.98 q -7.49,13.35 -11.33,28.24 a 1.28,1.27 3.1 0 1 -1.06,0.95 q -2.47,0.35 -4.87,0.93 -12.74,3.1 -24.62,-2.23 z"
     id="path410" />
  <path
     fill="#e45d5a"
     d="m 285.66,202.01 q -9.16,-2.9 -17.28,-8.64 c -9.23,-6.51 -17.75,-13.29 -27.91,-19.24 q -9.44,-5.53 -19.76,-6.97 -1.96,-0.28 -0.14,-1.05 1.1,-0.47 2.1,-0.46 22.04,-2.4 32.83,-2.6 11.27,-0.2 23.51,1.87 c 10.99,1.86 21.18,5.45 29.18,12.85 5.13,4.75 7.27,13.77 1.58,19.09 q -2.98,2.79 -7.02,3.87 -8.16,2.19 -17.09,1.28 z"
     id="path412" />
  <path
     fill="#e45d5a"
     d="m 200.44,175.01 q -0.14,0.26 0.07,0.55 -1.06,0.92 -2.14,0.96 -0.67,0.03 -0.09,-0.3 z"
     id="path414" />
  <path
     fill="#ff857e"
     d="m 313.35,213.12 -2.18,13.89 a 1.05,1.04 0.3 0 1 -0.89,0.87 c -17.38,2.58 -36.47,-3.6 -49.83,-14.41 q -4.37,-3.53 -9.49,-7.76 -9.24,-7.6 -20.73,-12.66 c -10.25,-4.52 -24.43,-6.65 -35.26,-2.79 q -3.81,1.36 -9,4.48 -1.49,0.9 -3.55,-0.96 3.93,-4.49 8.38,-6.46 4.39,-1.94 10.5,-3.35 5.69,-1.31 11.25,-1.28 c 15.85,0.09 30.02,5.45 42.38,14.88 6.6,5.03 13.23,10.2 20.89,13.07 q 5.87,2.19 12.31,3.06 12.35,1.66 25.22,-0.58 z"
     id="path416" />
  <path
     fill="#010000"
     d="m 546.17,240.49 c -11.52,-13.29 -29.2,-15.75 -44.06,-6.25 q -1.22,0.78 -0.48,-0.47 c 4.56,-7.67 12.13,-15.8 21.14,-17.74 15.04,-3.26 22.52,11.83 24.31,24.04 q 0.26,1.78 -0.91,0.42 z"
     id="path418" />
  <path
     fill="#010000"
     d="m 363.77,261.93 c -13.45,-0.06 -28.12,5.32 -34.61,17.43 q -0.63,1.18 -0.61,-0.16 c 0.1,-7.51 1.73,-17.05 6.78,-22.78 8.49,-9.63 21.36,-1.52 28.73,4.72 q 0.94,0.8 -0.29,0.79 z"
     id="path420" />
  <path
     fill="#ff857e"
     d="m 551.82,287.73 q -3.51,-4.72 -7.67,-8.62 c -7.64,-7.17 -19.11,-10.57 -28.85,-5.07 -13.04,7.37 -18.37,24.6 -18.6,39.2 q -1.55,-6.23 -1.12,-10 0.4,-3.58 0.56,-5.81 0.31,-4.29 0.62,-5.78 1.96,-9.3 6.91,-17.54 c 4.09,-6.79 11.8,-11.9 20.07,-11.72 6.77,0.15 13.67,4.28 18.53,9.09 q 4.16,4.11 5.83,6.17 0.78,0.96 1.35,2.12 0.66,1.36 1.74,2.51 1.51,1.61 0.23,2.94 -0.42,0.44 -0.02,0.9 0.42,0.46 0.42,1.61 z"
     id="path422" />
  <path
     fill="#010000"
     d="m 551.82,287.73 c 10.52,16.47 13.57,37.33 8.17,56.27 q -1.15,4.03 -2.79,6.56 -6.2,6.35 -13.5,7.15 -7.95,-0.27 -12.99,-4.15 C 517.1,343.07 514.2,323.54 520.11,308.11 q 3.92,3.26 8.37,3.11 c 4.63,-0.17 8.82,-3.5 10.04,-7.97 q 1.27,-4.65 -1.97,-9.56 c 7.08,-0.84 14.34,2.2 18.9,7.33 q 1.25,1.41 0.4,-0.27 -3.55,-7.06 -7.73,-12.47 c -6.83,-8.85 -18.27,-14.86 -29.12,-9.78 -11.79,5.52 -17,19.46 -18.16,32.01 -1.4,15.28 2.54,32.88 11.8,44.82 q 0.73,0.93 3.93,4.12 6.09,6.85 15.49,8.69 -2.79,0.67 -5.6,-0.39 c -21,-7.93 -30.02,-34.15 -29.76,-54.51 0.23,-14.6 5.56,-31.83 18.6,-39.2 9.74,-5.5 21.21,-2.1 28.85,5.07 q 4.16,3.9 7.67,8.62 z m -11.77,62.98 q -0.39,-0.85 -1.09,-1.52 -0.86,-0.84 -1.46,-1.8 -4.39,-7.03 -5.11,-13.25 -0.52,-4.5 -0.35,-8.76 0.33,-8.16 6.71,-14.43 c 5.95,-5.84 14.16,-4.13 19.29,1.51 q 2.51,2.74 1.6,-0.86 -0.67,-2.62 -1.87,-5.32 -0.45,-1.03 -1.48,-1.75 -0.97,-0.67 -2,-1.36 -0.37,-0.25 -0.82,-0.27 -4.82,-0.22 -9.16,0.26 -1.86,0.21 -3.61,0.99 -0.48,0.21 -0.78,0.64 -1.8,2.52 -3.92,4.96 c -1.37,1.57 -3.45,2.12 -5.29,2.94 -1.32,0.6 -3.01,3.19 -3.59,4.45 q -1.84,4.05 -2.5,6.93 -1.43,6.25 1,12.91 0.31,0.86 0.78,1.71 0.61,1.11 0.94,2.22 c 0.34,1.14 1.21,1.99 1.97,2.92 0.47,0.58 0.46,1.25 1.07,1.81 q 0.39,0.35 1.38,0.45 2.48,0.25 3.34,2.68 0.16,0.46 0.58,0.72 1.61,1.03 2.52,2.66 0.26,0.46 0.76,0.29 0.97,-0.34 1.58,-1.43 a 0.07,0.08 8.1 0 0 -0.08,-0.11 q -0.13,0.01 -0.25,-0.04 -0.11,-0.05 -0.16,-0.15 z m 4.05,-34.2 a 3.19,3.19 0 0 0 -3.19,-3.19 3.19,3.19 0 0 0 -3.19,3.19 3.19,3.19 0 0 0 3.19,3.19 3.19,3.19 0 0 0 3.19,-3.19 z"
     id="path424" />
  <path
     fill="#ffffff"
     d="m 536.55,293.69 q -11.58,2.91 -16.44,14.42 c -5.91,15.43 -3.01,34.96 10.6,45.45 q 5.04,3.88 12.99,4.15 -4.87,3.75 -10.69,5.19 -3.31,0.81 -6.37,-0.07 -3.47,-0.99 -10.07,-3.38 -3.2,-3.19 -3.93,-4.12 c -9.26,-11.94 -13.2,-29.54 -11.8,-44.82 1.16,-12.55 6.37,-26.49 18.16,-32.01 10.85,-5.08 22.29,0.93 29.12,9.78 q 4.18,5.41 7.73,12.47 0.85,1.68 -0.4,0.27 c -4.56,-5.13 -11.82,-8.17 -18.9,-7.33 z"
     id="path426" />
  <path
     fill="#ff857e"
     d="m 378.14,313.52 q -2.28,-2.64 -4.53,-5.13 c -9.76,-10.82 -23.68,-11.31 -30.29,3.23 -3.83,8.42 -3.51,16.69 -3.46,25.86 q -1.3,-5.73 -1.69,-13.86 -0.21,-4.37 0.06,-8.11 c 0.4,-5.38 2.67,-10.48 4.96,-15.12 q 2.74,-5.57 10.22,-7.21 c 5.93,-1.31 12.93,3.01 16.8,7.24 q 2.48,2.7 5.01,6.12 2.27,3.04 2.92,6.98 z"
     id="path428" />
  <path
     fill="#a09c9d"
     d="m 536.55,293.69 q 3.24,4.91 1.97,9.56 c -1.22,4.47 -5.41,7.8 -10.04,7.97 q -4.45,0.15 -8.37,-3.11 4.86,-11.51 16.44,-14.42 z"
     id="path430" />
  <path
     fill="#010000"
     d="m 378.14,313.52 c 9.69,14.7 13.97,33.61 10.05,50.97 -0.61,2.72 -2.77,4.36 -4.71,6.09 q -3.03,2.23 -6.96,2.02 c -7.79,-0.43 -14.15,-7.76 -17.05,-14.57 q -5.69,-13.32 -2.94,-26.37 4.07,2.23 7.49,2.22 1.88,0.52 -1.96,2.04 -0.47,0.19 -0.69,0.64 -1.35,2.78 -1.85,5.85 -0.01,0.06 -0.06,0.11 -0.09,0.07 -0.25,0.02 -0.05,-0.02 -0.05,0.04 -0.05,2.01 -0.28,4.21 -0.2,1.95 0.56,3.91 0.68,1.73 1.11,3.55 0.35,1.49 1.37,2.92 0.91,1.27 1.26,2.66 0.13,0.52 0.59,0.8 1.09,0.68 1.09,1.93 -0.01,0.42 0.31,0.72 1.07,0.99 2.28,1.92 0.51,0.39 1.15,0.54 0.65,0.14 1.11,0.75 0.59,0.79 1.72,1.22 2.53,0.96 4.54,-0.39 l 0.58,0.9 q 0.16,0.26 0.47,0.32 0.21,0.03 0.41,-0.01 0.76,-0.15 0.15,-0.61 l -1.04,-0.8 q -0.88,-0.28 -1.04,-0.49 -2.59,-3.32 -4.6,-6.93 -4.21,-8.26 -3.43,-17.31 0.09,-1.01 0.66,-2.68 0.44,-1.29 0.67,-2.72 1.76,-2.66 4.23,-4.84 1.72,-1.52 3.44,-1.49 c 2.38,0.04 4.62,0.52 6.56,1.92 q 1.18,0.85 2.41,1.51 0.76,0.41 0.52,-0.42 L 384,326.98 a 0.53,0.53 0 0 0 -0.9,-0.21 q -0.21,0.23 -0.17,0.52 a 0.39,0.39 0 0 1 -0.35,0.44 q -1.99,0.23 -3.67,-0.43 -4.4,-1.73 -8.22,1.22 -0.34,0.27 -0.64,-0.05 -0.34,-0.37 -0.13,-1.43 0.36,-3.91 -2.16,-8.03 8.11,-0.33 13.67,5.42 0.25,0.26 0.48,-0.02 0.12,-0.15 0.03,-0.31 c -4.58,-8.23 -10.8,-17.31 -20.21,-19 -8.74,-1.58 -14.69,5.73 -17.03,13.33 -5.08,16.53 -0.44,36.04 8.59,50.26 q 1.72,2.71 4.94,5.54 5.07,6.24 12.72,7.41 -5.77,0.33 -10.63,-3.48 -7.45,-5.83 -11.96,-14.26 -6.6,-12.31 -8.5,-26.42 c -0.05,-9.17 -0.37,-17.44 3.46,-25.86 6.61,-14.54 20.53,-14.05 30.29,-3.23 q 2.25,2.49 4.53,5.13 z m -4.6316,27.3103 a 2.71,2.29 72.2 0 0 1.352,-3.2803 2.71,2.29 72.2 0 0 -3.0088,-1.8803 2.71,2.29 72.2 0 0 -1.352,3.2803 2.71,2.29 72.2 0 0 3.0088,1.8803 z"
     id="path432" />
  <path
     fill="#6c0000"
     d="m 540.21,350.86 q 0.12,0.05 0.25,0.04 a 0.07,0.08 8.1 0 1 0.08,0.11 q -0.61,1.09 -1.58,1.43 -0.5,0.17 -0.76,-0.29 -0.91,-1.63 -2.52,-2.66 -0.42,-0.26 -0.58,-0.72 -0.86,-2.43 -3.34,-2.68 -0.99,-0.1 -1.38,-0.45 c -0.61,-0.56 -0.6,-1.23 -1.07,-1.81 -0.76,-0.93 -1.63,-1.78 -1.97,-2.92 q -0.33,-1.11 -0.94,-2.22 -0.47,-0.85 -0.78,-1.71 -2.43,-6.66 -1,-12.91 0.66,-2.88 2.5,-6.93 c 0.58,-1.26 2.27,-3.85 3.59,-4.45 1.84,-0.82 3.92,-1.37 5.29,-2.94 q 2.12,-2.44 3.92,-4.96 0.3,-0.43 0.78,-0.64 1.75,-0.78 3.61,-0.99 4.34,-0.48 9.16,-0.26 0.45,0.02 0.82,0.27 1.03,0.69 2,1.36 1.03,0.72 1.48,1.75 1.2,2.7 1.87,5.32 0.91,3.6 -1.6,0.86 c -5.13,-5.64 -13.34,-7.35 -19.29,-1.51 q -6.38,6.27 -6.71,14.43 -0.17,4.26 0.35,8.76 0.72,6.22 5.11,13.25 0.6,0.96 1.46,1.8 0.7,0.67 1.09,1.52 0.05,0.1 0.16,0.15 z"
     id="path434" />
  <path
     fill="#ffffff"
     d="m 367.76,319.01 q -8.84,2.83 -11.23,12.65 -2.75,13.05 2.94,26.37 c 2.9,6.81 9.26,14.14 17.05,14.57 q 0.82,-0.02 0.84,-0.02 1.74,0.56 0.05,1.28 c -1.56,0.66 -3.06,1.81 -4.62,2.29 q -6.88,2.13 -14.56,-1.92 -3.22,-2.83 -4.94,-5.54 c -9.03,-14.22 -13.67,-33.73 -8.59,-50.26 2.34,-7.6 8.29,-14.91 17.03,-13.33 9.41,1.69 15.63,10.77 20.21,19 q 0.09,0.16 -0.03,0.31 -0.23,0.28 -0.48,0.02 -5.56,-5.75 -13.67,-5.42 z"
     id="path436" />
  <circle
     fill="#ffffff"
     cx="540.90997"
     cy="316.51001"
     r="3.1900001"
     id="circle438" />
  <path
     fill="#a09c9d"
     d="m 367.76,319.01 q 2.52,4.12 2.16,8.03 -0.93,5.04 -5.9,6.84 -3.42,0.01 -7.49,-2.22 2.39,-9.82 11.23,-12.65 z"
     id="path440" />
  <path
     fill="#3a0e01"
     d="m 368.8,336.99 q 0.25,-0.71 0.05,-0.76 a 1.73,2.05 16.2 0 0 -2.15,1.43 q -0.24,0.76 -0.83,1.38 -0.37,0.4 -0.44,0.95 -0.12,0.83 -0.5,1.57 -0.39,0.76 -0.53,1.51 -0.68,3.66 -0.02,7.52 0.26,1.49 1.23,3.07 0.88,1.42 1.7,2.86 0.54,0.95 0.87,1.95 0.47,1.48 1.82,2.58 a 0.51,0.51 0 0 0 0.83,-0.37 l 0.07,-0.98 q 2.01,3.61 4.6,6.93 0.16,0.21 1.04,0.49 -0.71,-0.02 -0.57,0.2 -2.01,1.35 -4.54,0.39 -1.13,-0.43 -1.72,-1.22 -0.46,-0.61 -1.11,-0.75 -0.64,-0.15 -1.15,-0.54 -1.21,-0.93 -2.28,-1.92 -0.32,-0.3 -0.31,-0.72 0,-1.25 -1.09,-1.93 -0.46,-0.28 -0.59,-0.8 -0.35,-1.39 -1.26,-2.66 -1.02,-1.43 -1.37,-2.92 -0.43,-1.82 -1.11,-3.55 -0.76,-1.96 -0.56,-3.91 0.23,-2.2 0.28,-4.21 0,-0.06 0.05,-0.04 0.16,0.05 0.25,-0.02 0.05,-0.05 0.06,-0.11 0.5,-3.07 1.85,-5.85 0.22,-0.45 0.69,-0.64 3.84,-1.52 1.96,-2.04 4.97,-1.8 5.9,-6.84 -0.21,1.06 0.13,1.43 0.3,0.32 0.64,0.05 3.82,-2.95 8.22,-1.22 1.68,0.66 3.67,0.43 a 0.39,0.39 0 0 0 0.35,-0.44 q -0.04,-0.29 0.17,-0.52 a 0.53,0.53 0 0 1 0.9,0.21 l 1.96,6.69 q 0.24,0.83 -0.52,0.42 -1.23,-0.66 -2.41,-1.51 c -1.94,-1.4 -4.18,-1.88 -6.56,-1.92 q -1.72,-0.03 -3.44,1.49 -2.47,2.18 -4.23,4.84 z"
     id="path442" />
  <ellipse
     fill="#ffffff"
     cx="435.98428"
     cy="-251.43814"
     transform="rotate(72.2)"
     rx="2.71"
     ry="2.29"
     id="ellipse444" />
  <path
     fill="#9f201b"
     d="m 368.8,336.99 q -0.23,1.43 -0.67,2.72 -0.57,1.67 -0.66,2.68 -0.78,9.05 3.43,17.31 l -0.07,0.98 a 0.51,0.51 0 0 1 -0.83,0.37 q -1.35,-1.1 -1.82,-2.58 -0.33,-1 -0.87,-1.95 -0.82,-1.44 -1.7,-2.86 -0.97,-1.58 -1.23,-3.07 -0.66,-3.86 0.02,-7.52 0.14,-0.75 0.53,-1.51 0.38,-0.74 0.5,-1.57 0.07,-0.55 0.44,-0.95 0.59,-0.62 0.83,-1.38 a 1.73,2.05 16.2 0 1 2.15,-1.43 q 0.2,0.05 -0.05,0.76 z"
     id="path446" />
  <path
     fill="#a09c9d"
     d="m 557.2,350.56 q -0.56,2.91 -3.01,4.4 a 1.08,1.05 83.6 0 0 -0.47,0.61 l -0.72,2.45 q -0.08,0.26 -0.33,0.37 -0.12,0.05 -0.25,0.07 -0.16,0.03 -0.26,0.16 -3.6,5.02 -9.12,7.81 -1.29,0.65 -2.68,0.89 -1.35,0.23 -2.66,0.61 -2.98,0.84 -5.64,0.21 -9.4,-1.84 -15.49,-8.69 6.6,2.39 10.07,3.38 3.06,0.88 6.37,0.07 5.82,-1.44 10.69,-5.19 7.3,-0.8 13.5,-7.15 z"
     id="path448" />
  <path
     fill="#6c0000"
     d="m 460.11,423.41 q -7.52,17.16 -25.12,22.22 -4.78,2.08 -9.22,2.1 -16.83,1.48 -31.21,-5.13 -10.57,-4.86 -15.08,-11.44 -6.79,-9.91 -3.22,-21.31 2.52,-8.06 7.72,-13.4 c 6.07,-6.24 9.75,-13.52 11.19,-22.36 q 0.72,-4.44 0.97,-8.59 0.09,-1.37 0.17,0 c 0.46,8.32 -0.93,17.58 -5.5,24.27 q -1,1.46 0.51,0.55 11.74,-7.07 25.99,-9.28 c 10.7,-1.66 24.31,-4.24 34.34,1.51 15.45,8.87 14.97,26.25 8.46,40.86 z m -50.82,-38.97 c -13.31,3.6 -26,10.96 -30.83,23.8 q -5.65,15.05 6.53,26.38 5.19,5.18 14.04,7.9 2.76,0.85 5.5,1.79 3.12,1.08 5.58,1.41 c 14.58,1.99 28.71,-0.27 39.71,-10.1 9.97,-8.91 16.77,-29.71 10.44,-42.05 q -3.41,-6.65 -10.63,-10.09 -7.2,-3.44 -14.63,-2.85 -10.11,0.8 -23.73,3.25 -1.02,0.18 -1.98,0.56 z"
     id="path450" />
  <path
     fill="#6c0000"
     d="m 375.97,367.32 q -0.14,-0.22 0.57,-0.2 l 1.04,0.8 q 0.61,0.46 -0.15,0.61 -0.2,0.04 -0.41,0.01 -0.31,-0.06 -0.47,-0.32 z"
     id="path452" />
  <path
     fill="#a09c9d"
     d="m 370.95,381.64 q -7.65,-1.17 -12.72,-7.41 7.68,4.05 14.56,1.92 c 1.56,-0.48 3.06,-1.63 4.62,-2.29 q 1.69,-0.72 -0.05,-1.28 -0.02,0 -0.84,0.02 3.93,0.21 6.96,-2.02 0.32,0.47 0.72,0.06 0.59,-0.63 0.42,0.22 -0.83,4.1 -2.37,7.3 -0.44,0.93 -1.48,0.94 -0.53,0.01 -1.01,0.25 -0.27,0.14 -0.46,0.38 -0.31,0.42 -0.82,0.51 z"
     id="path454" />
  <path
     fill="#d93f3d"
     d="m 384.99,434.62 q -7.01,-11.09 -5.2,-21.55 c 2.37,-13.63 17.87,-22.95 29.87,-27.84 q 0.11,-0.04 0.19,-0.14 0.1,-0.11 0.07,-0.27 -0.04,-0.27 -0.3,-0.32 -0.16,-0.04 -0.33,-0.06 0.96,-0.38 1.98,-0.56 13.62,-2.45 23.73,-3.25 7.43,-0.59 14.63,2.85 7.22,3.44 10.63,10.09 c 6.33,12.34 -0.47,33.14 -10.44,42.05 -11,9.83 -25.13,12.09 -39.71,10.1 q -2.46,-0.33 -5.58,-1.41 -2.74,-0.94 -5.5,-1.79 -8.85,-2.72 -14.04,-7.9 z m 58.84,-17.1 c 2.76,-5.65 3.9,-13.77 -2.05,-17.68 -2.93,-1.92 -6.29,-1.12 -8.63,1.26 q -7.4,7.52 -8.22,18.46 c -0.46,6.12 4.18,10.18 10.29,7.46 q 5.06,-2.25 8.61,-9.5 z m -33.41,4.91 q -1.52,-6.01 -5.32,-10.66 c -3.87,-4.75 -10.24,-7.74 -15.59,-3.37 -3.03,2.46 -1.55,8.36 -0.29,11.38 q 2.76,6.66 7.91,11.32 c 7.88,7.14 15.73,0.92 13.29,-8.67 z"
     id="path456" />
  <path
     fill="#ff857e"
     d="m 409.29,384.44 q 0.17,0.02 0.33,0.06 0.26,0.05 0.3,0.32 0.03,0.16 -0.07,0.27 -0.08,0.1 -0.19,0.14 c -12,4.89 -27.5,14.21 -29.87,27.84 q -1.81,10.46 5.2,21.55 -12.18,-11.33 -6.53,-26.38 c 4.83,-12.84 17.52,-20.2 30.83,-23.8 z"
     id="path458" />
  <path
     fill="#9f201b"
     d="m 498.9,408.59 q -0.52,-0.5 -0.69,-1.18 c -0.31,-1.23 -0.73,-1.84 -1.54,-2.65 a 0.96,0.96 0 0 0 -1.59,0.39 q -0.61,1.88 -1.46,3.67 -0.84,1.78 -1.47,3.69 -1.59,4.76 -4.92,9.06 -2.14,2.75 -4.3,5.39 -2.06,2.53 -4.78,4.74 -10.24,8.3 -20.11,11.77 c -3.05,1.07 -6.08,1.66 -9.18,2.45 q -3.46,0.88 -6.78,1.39 -4.62,0.72 -8.96,0.6 a 1.94,1.94 0 0 0 -1.96,1.63 q -0.86,5.3 -1.33,10.21 -0.18,1.96 0.86,5.29 -0.65,1.74 0.8,5.01 l 0.18,0.44 q 1.97,5.22 6.33,7.6 c 11.58,6.35 28.91,-1.74 37.96,-9.31 l 8.32,-7.91 1.05,-1.06 q 0.39,-0.39 0.1,-0.86 l -0.94,-1.49 q 2.01,1.05 3.18,-0.81 5.07,-8.06 8.28,-16.99 0.75,-2.09 1.19,-4.37 0.41,-2.13 0.98,-4.43 0.65,-2.67 0.74,-6 0.02,-0.6 0.41,-1.06 0.46,-0.52 0.37,-1.55 -0.35,-3.76 -0.29,-10.71 2.28,14.62 -1.18,26.47 -8.33,28.54 -35.33,40.6 c -8.52,3.8 -21.28,5.98 -28.78,-1.42 -5.58,-5.5 -6.68,-15.87 -5.36,-23.31 q 0.23,-1.29 0.65,-5.2 0.05,-0.48 -0.43,-0.54 l -3.15,-0.41 q 4.44,-0.02 9.22,-2.1 -0.49,0.62 -0.68,0.69 -1.44,0.54 0.08,0.31 5.35,-0.82 10.85,-1.39 4.09,-0.43 13.18,-3.81 25.79,-9.6 35.01,-34.95 l 1.87,-5.78 a 0.93,0.93 0 0 0 -0.76,-1.21 q -3.05,-0.4 -6.03,0.38 -0.37,0.1 -0.48,-0.27 l -0.08,-0.24 q -0.01,-0.06 0.04,-0.08 11.11,-4.26 16.1,6.36 0.07,0.15 -0.08,0.23 v 0 q -0.08,0.05 -0.13,-0.03 -2.27,-3.29 -5.49,-5.13 a 0.52,0.52 0 0 0 -0.77,0.54 z"
     id="path460" />
  <path
     fill="#6c0000"
     d="m 443.83,417.52 q -3.55,7.25 -8.61,9.5 c -6.11,2.72 -10.75,-1.34 -10.29,-7.46 q 0.82,-10.94 8.22,-18.46 c 2.34,-2.38 5.7,-3.18 8.63,-1.26 5.95,3.91 4.81,12.03 2.05,17.68 z m -14.27,8.35 a 2.98,3.02 60.6 0 0 1.76,0.48 q 3.86,-0.16 6.59,-3.05 5.29,-5.62 6.38,-14.03 c 0.32,-2.5 -0.3,-5.28 -2.1,-7.07 q -1.92,-1.9 -1.15,0.68 c 2.22,7.47 -4.61,19.56 -12.47,21.05 q -1.54,0.29 -0.23,1.14 z"
     id="path462" />
  <path
     fill="#9f201b"
     d="m 429.56,425.87 -1.22,-0.8 q -1.31,-0.85 0.23,-1.14 c 7.86,-1.49 14.69,-13.58 12.47,-21.05 q -0.77,-2.58 1.15,-0.68 c 1.8,1.79 2.42,4.57 2.1,7.07 q -1.09,8.41 -6.38,14.03 -2.73,2.89 -6.59,3.05 a 2.98,3.02 60.6 0 1 -1.76,-0.48 z"
     id="path464" />
  <path
     fill="#6c0000"
     d="m 498.9,408.59 0.45,2.95 q -0.06,6.95 0.29,10.71 0.09,1.03 -0.37,1.55 -0.39,0.46 -0.41,1.06 -0.09,3.33 -0.74,6 -0.57,2.3 -0.98,4.43 -0.44,2.28 -1.19,4.37 -3.21,8.93 -8.28,16.99 -1.17,1.86 -3.18,0.81 c -7.52,-7.8 -18.11,-5.35 -25.35,1.16 a 1.45,1.45 0 0 1 -1.93,0 c -10.12,-8.98 -19.83,-3.9 -26.52,6.42 q -1.04,-3.33 -0.86,-5.29 0.47,-4.91 1.33,-10.21 a 1.94,1.94 0 0 1 1.96,-1.63 q 4.34,0.12 8.96,-0.6 3.32,-0.51 6.78,-1.39 c 3.1,-0.79 6.13,-1.38 9.18,-2.45 q 9.87,-3.47 20.11,-11.77 2.72,-2.21 4.78,-4.74 2.16,-2.64 4.3,-5.39 3.33,-4.3 4.92,-9.06 0.63,-1.91 1.47,-3.69 0.85,-1.79 1.46,-3.67 a 0.96,0.96 0 0 1 1.59,-0.39 c 0.81,0.81 1.23,1.42 1.54,2.65 q 0.17,0.68 0.69,1.18 z"
     id="path466" />
  <path
     fill="#9f201b"
     d="m 410.42,422.43 c 2.44,9.59 -5.41,15.81 -13.29,8.67 q -5.15,-4.66 -7.91,-11.32 c -1.26,-3.02 -2.74,-8.92 0.29,-11.38 5.35,-4.37 11.72,-1.38 15.59,3.37 q 3.8,4.65 5.32,10.66 z m -10.49,-12.97 q -1.8,-1.05 -3.47,-1.01 -1.72,0.04 -3.41,0.23 a 2.49,2.48 79.2 0 0 -2.11,3.11 c 1.64,6.12 9.17,19.73 17.7,16.45 q 0.59,-0.23 0.49,-0.85 -0.24,-1.54 0.29,-2.82 0.26,-0.62 0,-1.23 -1.3,-2.96 -2.44,-5.81 -0.66,-1.67 -2.39,-3.45 -1.24,-1.28 -2.67,-2.99 -0.76,-0.91 -1.99,-1.63 z"
     id="path468" />
  <path
     fill="#ff857e"
     d="m 493.43,406.48 q -9.22,25.35 -35.01,34.95 -9.09,3.38 -13.18,3.81 -5.5,0.57 -10.85,1.39 -1.52,0.23 -0.08,-0.31 0.19,-0.07 0.68,-0.69 17.6,-5.06 25.12,-22.22 l 0.03,0.54 a 0.62,0.62 0 0 0 0.58,0.6 q 11.19,0.98 19.38,-5.54 4.51,-3.6 8.82,-9.82 0.9,-1.3 4.51,-2.71 z"
     id="path470" />
  <path
     fill="#230701"
     d="m 329.61,453.95 q 0.15,0.72 -0.67,1.27 -1.55,4.64 -4.48,8 -9.97,11.42 -22.21,19.01 -9.03,5.59 -15,7.01 -3.49,0.83 -7.15,1.67 0.21,1.01 -1.14,0.6 -0.39,-0.57 -1.3,-0.63 c -14.89,-1.03 -30.28,-9.07 -35.62,-23.5 -2.41,-6.49 -0.76,-15.23 5.26,-19.41 a 0.53,0.53 0 0 0 -0.08,-0.91 q -3.62,-1.69 -5.04,-4.19 c -5.91,-10.46 38.91,-16.53 44.07,-17.27 a 1.54,1.55 10.2 0 0 1.14,-0.8 q 3.4,-6.26 8.1,-11.45 c 4.23,-4.66 11.27,-8.93 16.87,-4.21 q 2.27,1.91 4.57,5.44 11.1,16.98 12.19,38.55 0.03,0.59 0.49,0.82 z m -42.55,-21.06 q -0.96,3.02 -0.72,-0.15 0.15,-1.88 0.56,-4.69 a 0.44,0.44 0 0 0 -0.49,-0.5 q -14.56,1.82 -28.88,5.54 -2.49,0.65 -5,1.59 c -2.24,0.84 -12.24,4.05 -8.07,8.19 q 3.95,3.93 9,3.06 2.78,-0.47 5.36,-0.82 0.62,-0.09 0.84,-0.68 1.26,-3.4 3.54,-6.35 0.24,-0.32 0.59,-0.11 l 0.23,0.14 a 0.24,0.23 32.7 0 1 0.08,0.33 q -4.17,6.17 -4.02,13.95 0.01,0.22 -0.21,0.24 l -0.27,0.01 q -0.12,0.01 -0.14,-0.1 -0.54,-2.47 -0.31,-4.86 a 0.73,0.74 86.2 0 0 -0.9,-0.78 q -2.49,0.58 -5.19,0.99 -3.08,0.46 -4.86,1.7 c -4.93,3.45 -6.02,9.53 -4.93,15.12 a 1.02,1.02 0 0 0 1.15,0.82 q 6.56,-0.91 13.39,-2.07 10.03,-1.7 20.77,-5.88 c 19.77,-7.69 31.9,-22.4 33.74,-44.48 q 0.12,-1.5 -0.91,-2.56 c -2.28,-2.34 -7.16,-1.84 -9.65,-0.14 q -10.4,7.09 -13.87,19.62 -0.57,2.08 -0.83,2.87 z m -3.54,24.7 c -1.29,0.65 -1.29,2.18 -1.89,3.33 q -0.47,0.88 -0.54,1.85 -0.92,12.35 10.65,16.2 4.83,1.6 9.1,1.15 2.3,-0.25 4.85,-2.19 3.99,-3.05 8.05,-6.28 6.61,-5.26 11.52,-12.16 1.73,-2.43 1.86,-4.91 0.21,-3.82 -0.3,-9.05 c -0.21,-2.18 -1.28,-3.86 -1.65,-5.92 q -0.85,-4.87 -2.48,-8.91 -2.78,-6.93 -6.72,-14.69 -0.41,-0.81 -1.3,-1.07 -0.56,-0.17 -0.6,0.42 -0.95,12.13 -8.23,23.71 -3.19,5.08 -7.64,8.79 -7.12,5.93 -14.68,9.73 z"
     id="path472" />
  <path
     fill="#6c0000"
     d="m 399.93,409.46 q 1.23,0.72 1.99,1.63 1.43,1.71 2.67,2.99 1.73,1.78 2.39,3.45 1.14,2.85 2.44,5.81 0.26,0.61 0,1.23 -0.53,1.28 -0.29,2.82 0.1,0.62 -0.49,0.85 c -8.53,3.28 -16.06,-10.33 -17.7,-16.45 a 2.49,2.48 79.2 0 1 2.11,-3.11 q 1.69,-0.19 3.41,-0.23 1.67,-0.04 3.47,1.01 z"
     id="path474" />
  <path
     fill="#6b372f"
     d="m 287.06,432.89 q 0.26,-0.79 0.83,-2.87 3.47,-12.53 13.87,-19.62 c 2.49,-1.7 7.37,-2.2 9.65,0.14 q 1.03,1.06 0.91,2.56 c -1.84,22.08 -13.97,36.79 -33.74,44.48 q -10.74,4.18 -20.77,5.88 -6.83,1.16 -13.39,2.07 a 1.02,1.02 0 0 1 -1.15,-0.82 c -1.09,-5.59 0,-11.67 4.93,-15.12 q 1.78,-1.24 4.86,-1.7 2.7,-0.41 5.19,-0.99 a 0.73,0.74 86.2 0 1 0.9,0.78 q -0.23,2.39 0.31,4.86 0.02,0.11 0.14,0.1 l 0.27,-0.01 q 0.22,-0.02 0.21,-0.24 -0.15,-7.78 4.02,-13.95 a 0.24,0.23 32.7 0 0 -0.08,-0.33 l -0.23,-0.14 q -0.35,-0.21 -0.59,0.11 -2.28,2.95 -3.54,6.35 -0.22,0.59 -0.84,0.68 -2.58,0.35 -5.36,0.82 -5.05,0.87 -9,-3.06 c -4.17,-4.14 5.83,-7.35 8.07,-8.19 q 2.51,-0.94 5,-1.59 14.32,-3.72 28.88,-5.54 a 0.44,0.44 0 0 1 0.49,0.5 q -0.41,2.81 -0.56,4.69 -0.24,3.17 0.72,0.15 z"
     id="path476" />
  <path
     fill="#3a0e01"
     d="m 281.63,460.92 c 0.6,-1.15 0.6,-2.68 1.89,-3.33 q 7.56,-3.8 14.68,-9.73 4.45,-3.71 7.64,-8.79 7.28,-11.58 8.23,-23.71 0.04,-0.59 0.6,-0.42 0.89,0.26 1.3,1.07 3.94,7.76 6.72,14.69 1.63,4.04 2.48,8.91 c 0.37,2.06 1.44,3.74 1.65,5.92 q 0.51,5.23 0.3,9.05 -0.13,2.48 -1.86,4.91 -4.91,6.9 -11.52,12.16 -4.06,3.23 -8.05,6.28 -2.55,1.94 -4.85,2.19 -4.27,0.45 -9.1,-1.15 -11.57,-3.85 -10.65,-16.2 0.07,-0.97 0.54,-1.85 z"
     id="path478" />
  <path
     fill="#e45d5a"
     d="m 484.49,457.46 0.94,1.49 q 0.29,0.47 -0.1,0.86 l -1.05,1.06 q 0.19,-1.2 -0.13,-1.51 -7.28,-7.21 -16.77,-3.89 -6.49,2.26 -10.68,8.99 -0.09,0.15 -0.26,0.18 -0.16,0.03 -0.33,0.01 -0.43,-0.06 -0.25,-0.46 l 1.14,-2.51 a 1.41,1.41 0 0 0 -0.4,-1.67 c -2.86,-2.3 -6.66,-4.29 -10.28,-4.25 -6.16,0.05 -11.11,5.2 -14.04,10.27 q -0.13,0.23 -0.13,0.49 -0.01,0.22 -0.01,0.43 0.02,0.56 -0.32,1 -0.67,0.86 -0.33,2.1 -1.45,-3.27 -0.8,-5.01 c 6.69,-10.32 16.4,-15.4 26.52,-6.42 a 1.45,1.45 0 0 0 1.93,0 c 7.24,-6.51 17.83,-8.96 25.35,-1.16 z"
     id="path480" />
  <path
     fill="#ff857e"
     d="m 484.28,460.87 -8.32,7.91 q -6.38,-7.97 -15.23,-4.48 -1.96,0.77 -4.1,2.12 -0.45,0.28 -0.79,0.69 -1.08,1.25 -2.29,0.08 c -4.75,-4.61 -10.57,-4.98 -16.11,-1.75 q -1.91,1.12 -4.19,2.04 -1.82,0.73 -1.58,3.01 l -0.18,-0.44 q -0.34,-1.24 0.33,-2.1 0.34,-0.44 0.32,-1 0,-0.21 0.01,-0.43 0,-0.26 0.13,-0.49 c 2.93,-5.07 7.88,-10.22 14.04,-10.27 3.62,-0.04 7.42,1.95 10.28,4.25 a 1.41,1.41 0 0 1 0.4,1.67 l -1.14,2.51 q -0.18,0.4 0.25,0.46 0.17,0.02 0.33,-0.01 0.17,-0.03 0.26,-0.18 4.19,-6.73 10.68,-8.99 9.49,-3.32 16.77,3.89 0.32,0.31 0.13,1.51 z"
     id="path482" />
  <path
     fill="#fea39e"
     d="m 328.94,455.22 q 3.72,4 7.82,7.27 14.77,11.76 31.55,17.16 11.22,3.61 23.8,6.21 13.59,2.82 29.23,1.57 0.53,-0.04 0.93,0.32 8.58,7.93 19.33,10.86 a 0.41,0.41 0 0 1 0.1,0.75 q -13,7.74 -25.53,18.14 -2.47,2.04 -4.76,4.44 c -2.1,2.2 -4.34,4 -6.4,6.26 -10.26,11.28 -18.35,21.66 -25.95,34 q -0.13,0.22 -0.35,0.09 l -0.41,-0.25 q -0.1,-0.06 -0.04,-0.17 9.48,-17.06 19.83,-32.28 0.19,-0.27 -0.08,-0.47 l -0.21,-0.16 q -0.08,-0.06 -0.13,0.02 l -3.13,4.31 q -0.77,0.01 -0.74,-0.92 0.02,-0.58 0.4,-1.05 0.56,-0.72 1.26,-1.27 0.69,-0.54 -0.18,-0.45 -3.14,0.31 -6.33,0.81 c -7.86,1.25 -16.92,0.68 -24.42,-0.48 q -32.21,-4.97 -51.59,-31.17 -2.41,-3.27 -10.69,-16.53 12.24,-7.59 22.21,-19.01 2.93,-3.36 4.48,-8 z"
     id="path484" />
  <path
     fill="#fcc4c3"
     d="m 475.96,468.78 c -9.05,7.57 -26.38,15.66 -37.96,9.31 q -4.36,-2.38 -6.33,-7.6 -0.24,-2.28 1.58,-3.01 2.28,-0.92 4.19,-2.04 c 5.54,-3.23 11.36,-2.86 16.11,1.75 q 1.21,1.17 2.29,-0.08 0.34,-0.41 0.79,-0.69 2.14,-1.35 4.1,-2.12 8.85,-3.49 15.23,4.48 z"
     id="path486" />
  <path
     fill="#ff857e"
     d="m 302.25,482.23 q 8.28,13.26 10.69,16.53 19.38,26.2 51.59,31.17 c 7.5,1.16 16.56,1.73 24.42,0.48 q 3.19,-0.5 6.33,-0.81 0.87,-0.09 0.18,0.45 -0.7,0.55 -1.26,1.27 -0.38,0.47 -0.4,1.05 -0.03,0.93 0.74,0.92 -11.37,15.42 -19.8,32.32 a 1.01,1 20.3 0 1 -1.16,0.53 q -12.18,-3.24 -21.36,-7.77 -3.46,-1.71 -6.84,-3.51 -3.65,-1.94 -6.62,-3.84 -28.13,-18.09 -48.57,-45.71 -5.86,-7.92 -10.09,-14.4 3.66,-0.84 7.15,-1.67 5.97,-1.42 15,-7.01 z"
     id="path488" />
  <path
     fill="#fcc4c3"
     d="m 414.51,522.2 q 1.42,-1.65 3.07,-3.12 11.08,-9.84 23.4,-17.29 c 1.85,-1.12 3.81,-2.41 6.05,-2.09 q 12.24,1.74 24.64,-3.57 c 2.27,-0.98 4.7,-1.98 6.8,-3.26 q 2.44,-1.49 4.76,-2.76 0.51,-0.27 1.08,-0.23 13.88,0.89 28.48,1.52 3.42,0.14 6.24,1.3 21.91,9.03 29.22,31.46 2.98,9.15 3.14,20.39 0.21,14.32 -1.95,26.24 -1.41,7.78 -4.44,18.78 -4.33,15.68 -6.69,32.45 c -1.58,11.22 -1.94,22.55 -1.63,33.95 q 0.31,11.57 0.34,16.75 0.11,16.59 -6.93,33.4 -5.12,12.21 -11.19,22.12 -8.49,13.86 -22.94,22.3 c -38.02,22.2 -91.86,13.7 -120.52,-20.03 q -11.85,-13.95 -15.51,-32.77 -7.62,-39.14 -1.61,-75.65 3.46,-21.04 10.03,-37.09 c 3.19,-7.77 8.03,-15.59 12.38,-22.7 q 13.21,-21.63 32.14,-39.25 0.38,-0.35 0.89,-0.47 0.22,-0.05 0.44,-0.14 0.18,-0.09 0.31,-0.24 z"
     id="path490" />
  <path
     fill="#fea39e"
     d="m 702.78,596.58 4.03,1.53 a 0.43,0.42 39.8 0 1 0.07,0.76 q -18.22,11.1 -23.91,31.68 -1.16,-0.29 -2.33,-0.65 -1.17,-0.36 -2.33,-0.2 -27.75,3.79 -55.04,-2.51 -20.44,-4.72 -37.78,-16.28 c -3.67,-2.45 -7.93,-6.55 -12.43,-9.33 l -0.94,-1.34 q -0.38,-0.55 -0.5,0.11 -0.1,0.53 0.03,1.06 -0.95,1.15 -1.35,2.35 c -3.96,11.68 -3.89,22.69 -1.64,34.74 q 2.5,13.39 6.93,28.23 c 3.6,12.11 6.73,24.74 8.74,37.25 q 4.31,26.73 -0.14,55.34 -2.56,16.52 -8.1,36.49 -2.03,7.31 -3.48,14.05 -1.51,7.01 -2.61,14.07 -2.08,13.35 0.11,27.3 1.6,10.22 3.44,20.41 c 2.03,11.32 3.77,25.12 0.39,35.86 q -1.23,3.9 -5.37,9.39 -6.85,-4.5 -14.87,-7.04 -11.27,-3.56 -22.62,0.21 4.28,-18.26 3.31,-31.8 -0.97,-13.61 -9.93,-23.08 -4.96,-5.25 -10.38,-10.06 -12.74,-11.33 -20.51,-27.63 -6.68,-14.03 -11.4,-30.31 a 0.24,0.24 0 0 1 0.22,-0.31 q 30.46,-1.83 54.62,-18.69 3,-2.09 5.35,-4.26 0.1,-0.09 0.01,-0.2 v -0.01 q -0.09,-0.12 -0.22,-0.03 c -22.26,15.85 -48.71,23.54 -75.9,21.35 q -29.1,-2.33 -56.03,-16.36 l -7.75,-4.82 q -2.19,-1.36 -0.95,0.92 c 0.47,0.88 0.5,1.76 1.07,2.6 q 4.46,6.62 9.87,11.82 c 9.93,9.56 20.79,18.24 29.45,28.94 7.16,8.86 7.46,18.46 5.49,29.18 q -2.23,12.09 -6.26,24.36 c -2.97,9.06 -4.97,16.36 -7.4,24.59 q -3.74,12.66 -5.4,25.74 -0.25,1.99 -0.24,4.51 0.01,2.21 -0.04,4.53 -4.6,-2.12 -10.8,-6.56 -9.25,-6.63 -21.75,-7.69 -3.12,-0.27 -9.15,1.16 -0.73,-15.42 4.29,-29.41 c 3.31,-9.22 7.17,-18.66 8.56,-28 q 0.5,-3.31 0.36,-8.19 c -0.29,-9.98 -3.33,-20 -7.19,-29.61 q -4.47,-11.18 -9,-19.95 -5.64,-10.94 -10.78,-24.14 c -6.95,-17.81 -11.23,-36.18 -10.68,-55.3 q 0.07,-2.26 0.97,-0.19 c 17.8,41.18 67.43,58.04 108.7,48.74 19.14,-4.31 36.96,-14.89 47.73,-31.14 q 4.92,-7.41 9.76,-17.91 5.73,-12.44 8.09,-24.09 1.68,-8.29 1.56,-20.72 c -0.12,-11.82 -0.71,-23.88 0.31,-35.85 q 1.8,-21.26 7.24,-40.65 4.32,-15.41 5.77,-26.51 0.57,-4.39 1.08,-8.25 0.54,-4.14 0.48,-7.98 -0.12,-7.55 -1.31,-15.17 -1.85,-11.84 -7.61,-21.54 c -5.14,-8.65 -12.33,-14.8 -21.34,-19.11 q -2.74,-1.31 0.29,-1.13 24,1.41 48.75,0.12 7.77,-0.4 15.85,-1.39 c 0.63,-0.08 1.76,0.19 2.34,0.45 q 16.31,7.28 27.77,20.96 c 9.22,11 15.66,22.37 23.01,35.73 q 7.93,14.41 20.01,24.66 17.25,14.64 41.41,24.2 z"
     id="path492" />
  <path
     fill="#230701"
     d="m 682.15,655.42 q -0.36,-0.86 -0.38,-1.57 -0.05,-2.22 -0.28,-4.87 -0.8,-9.33 1.48,-18.43 5.69,-20.58 23.91,-31.68 a 0.43,0.42 39.8 0 0 -0.07,-0.76 l -4.03,-1.53 q -0.15,-0.67 1.29,-0.91 l 3.99,1.76 q 0.5,0.22 1.01,0.01 2.61,-1.07 5.27,-2.08 c 9.73,-3.72 21.39,-3.9 29.93,2.79 q 2.38,1.86 2.99,4.28 2.29,9.01 0.68,18.28 -0.08,0.51 0.39,0.71 c 11.13,4.63 17.96,16.11 18.79,27.77 0.33,4.49 -0.38,7.98 -5.31,9.26 q -5.29,1.38 -11.69,0.8 -1.17,-0.1 -0.19,0.54 c 3.82,2.47 8.46,5.96 9.94,10.3 2.08,6.12 -10.72,10.34 -14.67,11.41 q -16.45,4.44 -30.97,1.85 -7.36,-1.31 -15.96,-6.52 -8.91,-5.39 -13.63,-14.77 -0.66,-1.3 -2.49,-6.64 z m 40.61,-60.19 c -3.78,0.46 -7.43,1.91 -11.04,3.18 q -2.73,0.95 -5.09,2.53 -13.05,8.69 -19.56,23.12 -1.74,3.85 -1.01,7.27 c 0.84,3.98 2.52,9.3 5.44,11.98 q 6.32,5.81 15.43,4.79 1.82,-0.21 2.51,-2.02 1.46,-3.86 3.02,-7.53 5.22,-12.28 14.29,-22.1 c 4.94,-5.33 10.81,-11.42 17.11,-15.01 a 0.48,0.48 0 0 0 0.18,-0.66 q -0.57,-1.01 -1.49,-1.66 -6.57,-4.65 -14.03,-4.34 -3.06,0.12 -5.76,0.45 z m 24.27,47.91 q 0.1,-0.01 0.12,0.09 1.35,6.99 -1.17,13.44 -0.21,0.54 0.36,0.57 c 3.48,0.22 7.33,0.7 10.81,0.18 3.9,-0.59 8.54,-0.72 8.3,-6.15 -0.55,-12.04 -6.51,-23.4 -17.59,-28.25 a 0.52,0.52 0 0 0 -0.7,0.3 q -3.49,9.38 -11.86,15.67 -0.07,0.05 -0.16,0.05 -0.06,0 -0.1,-0.04 -0.1,-0.09 0,-0.2 c 2.58,-2.81 5.37,-5.65 7.21,-8.78 q 7.14,-12.16 3.34,-26.69 -0.21,-0.81 -0.92,-0.36 -4.11,2.6 -8.02,6.01 c -19.5,17.01 -35.21,45.57 -23.34,71.37 a 2.32,2.34 80.9 0 0 1.88,1.35 c 13.69,1.37 27.66,0.46 39.67,-6.05 q 2.07,-1.12 3.38,-3.14 0.22,-0.35 0.16,-0.75 c -0.94,-5.73 -8.24,-9.63 -12.58,-12.61 a 0.59,0.59 0 0 0 -0.85,0.21 c -2.85,5.28 -7.82,9.45 -13.51,11.3 q -0.06,0.02 -0.08,-0.04 l -0.11,-0.26 q -0.05,-0.11 0.06,-0.18 15.8,-8.77 15.4,-26.97 0,-0.04 0.05,-0.05 z"
     id="path494" />
  <path
     fill="#3a0e01"
     d="m 728.52,594.78 q 7.46,-0.31 14.03,4.34 0.92,0.65 1.49,1.66 a 0.48,0.48 0 0 1 -0.18,0.66 c -6.3,3.59 -12.17,9.68 -17.11,15.01 q -9.07,9.82 -14.29,22.1 -1.56,3.67 -3.02,7.53 -0.69,1.81 -2.51,2.02 -9.11,1.02 -15.43,-4.79 c -2.92,-2.68 -4.6,-8 -5.44,-11.98 q -0.73,-3.42 1.01,-7.27 6.51,-14.43 19.56,-23.12 2.36,-1.58 5.09,-2.53 c 3.61,-1.27 7.26,-2.72 11.04,-3.18 q 2.7,-0.33 5.76,-0.45 z"
     id="path496" />
  <path
     fill="#9f201b"
     d="m 573.06,601.58 q -0.16,0.48 -0.21,0.96 -0.06,0.45 0.14,0.96 c 10.03,26.51 35.55,39.62 61.88,45.42 q 22.48,4.95 46.9,4.93 0.02,0.71 0.38,1.57 -21.61,-0.07 -42.4,-3.86 -19.44,-3.54 -37.04,-12.54 a 0.34,0.35 13.6 0 0 -0.5,0.31 q 0.03,5.93 0.8,11.83 c 1.08,8.41 3.95,17.18 6.27,25.55 3.03,10.97 5.01,21.99 6.11,33.23 a 1.01,1.01 0 0 0 0.96,0.92 q 10.61,0.51 16.06,8.87 0.38,0.58 1.07,0.67 12.45,1.61 14.04,15.28 c 0.6,5.12 0.8,17.6 -4.69,20.7 a 1.74,1.71 36.4 0 1 -1.26,0.18 c -6.26,-1.48 -4.48,-13.74 -4.41,-18.04 q 0.02,-1.1 -0.48,-2.3 a 0.04031129,0.04031129 0 0 0 -0.08,0.01 c -0.36,9.64 -3.35,16.69 -13.58,18.42 q -4.25,0.72 -8.83,-0.3 a 0.66,0.66 0 0 0 -0.79,0.51 c -4.22,20.57 -12.29,41.84 -16.73,64.13 q -4.2,21.16 -0.47,41.36 c 0.93,5.02 2.71,10.55 3.87,15.89 q 4.14,19.21 1.62,38.53 -0.91,-0.1 -1.5,0.75 3.18,-23.58 -2.9,-44.02 -5.03,-16.91 -4.23,-34.01 0.76,-16.48 4.65,-30.43 4.71,-16.92 9.65,-33.95 c 4.79,-16.54 7.86,-34.54 7.08,-51.71 q -0.86,-19.01 -4.79,-36.62 c -2.11,-9.49 -5.28,-18.81 -7.19,-27.38 q -2.05,-9.21 -1.99,-19.26 0.01,-0.53 -0.45,-0.8 c -11.54,-6.89 -22.96,-17.9 -26.82,-31.16 q -0.71,-2.41 -1.55,-4.77 -0.13,-0.53 -0.03,-1.06 0.12,-0.66 0.5,-0.11 z m 42.81,111.09 0.24,7.37 a 0.89,0.89 0 0 0 0.78,0.85 c 8.73,1.03 11.69,10.48 10.63,17.84 -0.85,5.97 -5.93,8.71 -11.75,7.63 q -1.07,-0.2 -1.23,0.89 l -0.66,4.46 q -0.14,1 0.85,1.15 3.43,0.52 7.13,0.28 6.98,-0.45 11.1,-6.61 4.93,-13.74 -1.77,-25.73 -4.52,-8.1 -15.32,-8.13 z m 19.14,12.72 q 0.59,2.59 1.1,5.31 c 0.61,3.22 2.96,4.9 2.67,8.53 -0.4,4.96 -0.77,9.95 1.47,14.57 a 1.67,1.66 58.8 0 0 2.5,0.62 c 4.06,-3.02 3.71,-15.71 2.91,-20.16 q -1.84,-10.28 -11,-11.91 -0.69,-0.12 -0.53,0.56 c 0.21,0.87 0.69,1.59 0.88,2.48 z m -9.95,3.93 c -1.63,-3.34 -4.26,-7.27 -8.62,-4.76 a 0.26,0.26 0 0 0 -0.12,0.2 l -0.21,7.01 q -0.01,0.3 0.28,0.23 l 8.31,-1.93 q 0.66,-0.15 0.36,-0.75 z m -8.95,5.17 -0.9,9.53 q -0.06,0.66 0.6,0.73 c 9.01,0.83 11.73,-4.79 9.82,-12.72 q -0.13,-0.57 -0.7,-0.42 l -8.17,2.11 q -0.6,0.16 -0.65,0.77 z"
     id="path498" />
  <path
     fill="#ff857e"
     d="m 571.65,601.41 q 0.84,2.36 1.55,4.77 c 3.86,13.26 15.28,24.27 26.82,31.16 q 0.46,0.27 0.45,0.8 -0.06,10.05 1.99,19.26 c 1.91,8.57 5.08,17.89 7.19,27.38 q 3.93,17.61 4.79,36.62 c 0.78,17.17 -2.29,35.17 -7.08,51.71 q -4.94,17.03 -9.65,33.95 -3.89,13.95 -4.65,30.43 -0.8,17.1 4.23,34.01 6.08,20.44 2.9,44.02 0,1.44 -0.53,2.68 a 0.98,0.96 5.6 0 1 -0.71,0.57 q -4.63,0.9 -9.2,1.74 -11.22,2.07 -21.18,-3.62 4.14,-5.49 5.37,-9.39 c 3.38,-10.74 1.64,-24.54 -0.39,-35.86 q -1.84,-10.19 -3.44,-20.41 -2.19,-13.95 -0.11,-27.3 1.1,-7.06 2.61,-14.07 1.45,-6.74 3.48,-14.05 5.54,-19.97 8.1,-36.49 4.45,-28.61 0.14,-55.34 c -2.01,-12.51 -5.14,-25.14 -8.74,-37.25 q -4.43,-14.84 -6.93,-28.23 c -2.25,-12.05 -2.32,-23.06 1.64,-34.74 q 0.4,-1.2 1.35,-2.35 z"
     id="path500" />
  <path
     fill="#ff857e"
     d="m 573.06,601.58 c 4.5,2.78 8.76,6.88 12.43,9.33 q 17.34,11.56 37.78,16.28 27.29,6.3 55.04,2.51 1.16,-0.16 2.33,0.2 1.17,0.36 2.33,0.65 -2.28,9.1 -1.48,18.43 0.23,2.65 0.28,4.87 -24.42,0.02 -46.9,-4.93 c -26.33,-5.8 -51.85,-18.91 -61.88,-45.42 q -0.2,-0.51 -0.14,-0.96 0.05,-0.48 0.21,-0.96 z"
     id="path502" />
  <path
     fill="#6b372f"
     d="m 746.73,643.21 q 0.4,18.2 -15.4,26.97 -0.11,0.07 -0.06,0.18 l 0.11,0.26 q 0.02,0.06 0.08,0.04 c 5.69,-1.85 10.66,-6.02 13.51,-11.3 a 0.59,0.59 0 0 1 0.85,-0.21 c 4.34,2.98 11.64,6.88 12.58,12.61 q 0.06,0.4 -0.16,0.75 -1.31,2.02 -3.38,3.14 c -12.01,6.51 -25.98,7.42 -39.67,6.05 a 2.32,2.34 80.9 0 1 -1.88,-1.35 c -11.87,-25.8 3.84,-54.36 23.34,-71.37 q 3.91,-3.41 8.02,-6.01 0.71,-0.45 0.92,0.36 3.8,14.53 -3.34,26.69 c -1.84,3.13 -4.63,5.97 -7.21,8.78 q -0.1,0.11 0,0.2 0.04,0.04 0.1,0.04 0.09,0 0.16,-0.05 8.37,-6.29 11.86,-15.67 a 0.52,0.52 0 0 1 0.7,-0.3 c 11.08,4.85 17.04,16.21 17.59,28.25 0.24,5.43 -4.4,5.56 -8.3,6.15 -3.48,0.52 -7.33,0.04 -10.81,-0.18 q -0.57,-0.03 -0.36,-0.57 2.52,-6.45 1.17,-13.44 -0.02,-0.1 -0.12,-0.09 l -0.25,0.02 q -0.05,0.01 -0.05,0.05 z"
     id="path504" />
  <path
     fill="#fea39e"
     d="m 632.96,746.53 q -1.83,0.31 -2.34,-2.06 c -0.51,-2.38 -0.81,-5.54 -0.44,-8.04 q 1.12,-7.49 -4.09,-14.33 c -1.79,-2.36 -4.55,-3.88 -6.62,-6.15 q -1.04,-1.13 -2.76,-1.35 -0.64,-0.08 -0.71,-0.72 l -0.13,-1.21 q 10.8,0.03 15.32,8.13 6.7,11.99 1.77,25.73 z"
     id="path506" />
  <path
     fill="#ff857e"
     d="m 615.87,712.67 0.13,1.21 q 0.07,0.64 0.71,0.72 1.72,0.22 2.76,1.35 c 2.07,2.27 4.83,3.79 6.62,6.15 q 5.21,6.84 4.09,14.33 c -0.37,2.5 -0.07,5.66 0.44,8.04 q 0.51,2.37 2.34,2.06 -4.12,6.16 -11.1,6.61 -3.7,0.24 -7.13,-0.28 -0.99,-0.15 -0.85,-1.15 l 0.66,-4.46 q 0.16,-1.09 1.23,-0.89 c 5.82,1.08 10.9,-1.66 11.75,-7.63 1.06,-7.36 -1.9,-16.81 -10.63,-17.84 a 0.89,0.89 0 0 1 -0.78,-0.85 z"
     id="path508" />
  <path
     fill="#fea39e"
     d="m 635.01,725.39 c -0.19,-0.89 -0.67,-1.61 -0.88,-2.48 q -0.16,-0.68 0.53,-0.56 9.16,1.63 11,11.91 c 0.8,4.45 1.15,17.14 -2.91,20.16 a 1.67,1.66 58.8 0 1 -2.5,-0.62 c -2.24,-4.62 -1.87,-9.61 -1.47,-14.57 0.29,-3.63 -2.06,-5.31 -2.67,-8.53 q -0.51,-2.72 -1.1,-5.31 z"
     id="path510" />
  <path
     fill="#ff857e"
     d="m 616.44,724.56 c 4.36,-2.51 6.99,1.42 8.62,4.76 q 0.3,0.6 -0.36,0.75 l -8.31,1.93 q -0.29,0.07 -0.28,-0.23 l 0.21,-7.01 a 0.26,0.26 0 0 1 0.12,-0.2 z"
     id="path512" />
  <path
     fill="#ffffff"
     d="m 615.21,744.02 0.9,-9.53 q 0.05,-0.61 0.65,-0.77 l 8.17,-2.11 q 0.57,-0.15 0.7,0.42 c 1.91,7.93 -0.81,13.55 -9.82,12.72 q -0.66,-0.07 -0.6,-0.73 z"
     id="path514" />
  <path
     fill="#ff857e"
     d="m 410.22,768.67 q 5.87,3.98 16.03,8.24 25.58,10.73 53.33,10.1 a 1.17,1.17 0 0 1 1.15,0.85 q 4.05,14.1 10.77,29.21 a 1.49,1.49 0 0 1 -0.24,1.59 q -12.39,14.19 -20.47,30.57 c -8.87,17.96 -13.99,37.66 -17.96,57.58 q -1.45,7.31 -3.29,14.62 -5.28,1 -8.54,1.39 -7.01,0.82 -12.94,-1.78 0.05,-2.32 0.04,-4.53 -0.01,-2.52 0.24,-4.51 1.66,-13.08 5.4,-25.74 c 2.43,-8.23 4.43,-15.53 7.4,-24.59 q 4.03,-12.27 6.26,-24.36 c 1.97,-10.72 1.67,-20.32 -5.49,-29.18 -8.66,-10.7 -19.52,-19.38 -29.45,-28.94 q -5.41,-5.2 -9.87,-11.82 c -0.57,-0.84 -0.6,-1.72 -1.07,-2.6 q -1.24,-2.28 0.95,-0.92 z"
     id="path516" />
  <path
     fill="#9f201b"
     d="m 531.08,910.06 q -0.49,0.44 -1.63,0.72 c 1.97,-9.74 3.61,-18.88 3.41,-29.16 -0.22,-11.2 -4,-20.41 -12.14,-27.91 q -6.49,-5.99 -12.2,-11.72 -9.37,-9.39 -15.43,-21.82 a 0.57,0.56 52.9 0 0 -0.93,-0.13 c -19.32,21.85 -30.22,49.19 -35.88,77.96 q -2.35,11.98 -5.26,23.68 -0.77,-0.48 -1.48,-0.25 1.84,-7.31 3.29,-14.62 c 3.97,-19.92 9.09,-39.62 17.96,-57.58 q 8.08,-16.38 20.47,-30.57 a 1.49,1.49 0 0 0 0.24,-1.59 q -6.72,-15.11 -10.77,-29.21 a 1.17,1.17 0 0 0 -1.15,-0.85 q -27.75,0.63 -53.33,-10.1 -10.16,-4.26 -16.03,-8.24 26.93,14.03 56.03,16.36 c 27.19,2.19 53.64,-5.5 75.9,-21.35 q 0.13,-0.09 0.22,0.03 v 0.01 q 0.09,0.11 -0.01,0.2 -2.35,2.17 -5.35,4.26 -24.16,16.86 -54.62,18.69 a 0.24,0.24 0 0 0 -0.22,0.31 q 4.72,16.28 11.4,30.31 7.77,16.3 20.51,27.63 5.42,4.81 10.38,10.06 8.96,9.47 9.93,23.08 0.97,13.54 -3.31,31.8 z"
     id="path518" />
  <path
     fill="#230701"
     d="m 428.06,921.04 q 5.93,2.6 12.94,1.78 3.26,-0.39 8.54,-1.39 0.71,-0.23 1.48,0.25 5.3,9.22 3.41,18.82 c -2.46,12.49 -17.58,17.21 -29.46,17.82 q -10.57,0.54 -23.03,0.88 c -6.05,0.16 -17.82,0.16 -18.77,-8.25 a 0.61,0.61 0 0 0 -0.74,-0.53 q -2.52,0.54 -5.1,0.73 c -5.85,0.44 -13,-1.87 -11.11,-9.4 q 1.91,-7.64 4.42,-13.8 4.79,-11.76 14.36,-19.25 0.96,-1.01 1.36,-0.75 6.03,-1.43 9.15,-1.16 12.5,1.06 21.75,7.69 6.2,4.44 10.8,6.56 z m -38.29,3.81 a 0.55,0.55 0 0 1 0.89,0.48 c -0.18,1.81 -0.25,3.66 -0.64,5.38 -1.29,5.67 -2.49,15.73 2.12,20.1 q 2.44,2.3 6.27,2.76 4.77,0.56 8.09,0.21 c 2.8,-0.3 5.65,-0.39 8.38,-1.28 q 5.81,-1.87 9.86,-5.7 c 4.49,-4.23 5.18,-8.62 5.25,-14.48 0.06,-5.16 -0.25,-8.17 -5.26,-10.71 -2.06,-1.05 -3.72,-2.51 -5.55,-3.88 q -2,-1.49 -4.32,-2.7 -2.59,-1.36 -5,-2.53 -3.54,-1.73 -7.97,-2.94 c -3.54,-0.97 -7.66,-1.09 -11.41,-0.54 q -4.56,0.68 -8.17,4.64 -1.55,1.7 -2.72,3.53 -1.14,1.79 -2.41,3.48 -1.34,1.77 -2.27,3.67 -1.02,2.12 -2.4,4.66 -0.67,1.23 -1.07,4.65 -0.07,0.54 -0.4,0.97 c -0.96,1.25 -1.16,3.07 -1.74,4.3 -1.5,3.2 -2.64,8.88 3.04,8.74 q 3.56,-0.1 5.13,-3.08 1.16,-2.22 2.64,-4.15 1.68,-2.19 2.65,-4.66 1.17,-2.98 3.28,-5.39 c 1.53,-1.76 1.88,-4.02 3.73,-5.53 z"
     id="path520" />
  <path
     fill="#230701"
     d="m 568.57,916.89 q 9.96,5.69 21.18,3.62 4.57,-0.84 9.2,-1.74 a 0.98,0.96 5.6 0 0 0.71,-0.57 q 0.53,-1.24 0.53,-2.68 0.59,-0.85 1.5,-0.75 l -0.79,3.86 a 1.05,1.05 0 0 0 0.27,0.92 c 5.21,5.4 1.69,16.85 -1.04,23.82 -6.14,15.64 -33.25,15.78 -46.96,13.47 q -7.38,-1.24 -11.64,-5.04 -0.46,-0.42 -0.95,-0.02 c -7.23,5.89 -24.46,8.9 -23.29,-6.36 q 1.02,-13.22 7.14,-26.48 2.18,-4.71 5.02,-8.16 1.14,-0.28 1.63,-0.72 11.35,-3.77 22.62,-0.21 8.02,2.54 14.87,7.04 z m -45.91,35.78 q 4.53,1.02 7.69,-2.68 c 3.31,-3.88 5.4,-8.89 6.46,-13.76 0.79,-3.66 2.76,-6.92 4.53,-10.18 q 0.76,-1.4 2.12,-2.07 a 0.8,0.79 79.3 0 1 1.14,0.78 c -0.51,6.45 -0.36,12.2 1.12,18.72 q 1.16,5.14 5.53,7.47 c 3.65,1.96 7.63,0.48 10.87,-1.51 q 3.91,-2.41 5.66,-4.89 c 2.92,-4.11 4.95,-11.28 3.25,-16.58 -0.81,-2.53 -0.36,-5.12 -2.17,-7.23 q -2.25,-2.62 -4.81,-4.04 -2.06,-1.14 -4.4,-2.37 -0.39,-0.2 -0.83,-0.26 -0.67,-0.08 -1.14,-0.52 -0.34,-0.34 -0.8,-0.48 c -3.01,-0.97 -5.74,-2.06 -8.94,-2.45 q -2.29,-0.27 -4.35,-0.47 -8.64,-0.86 -14.85,4.33 a 1.49,1.53 75.6 0 0 -0.5,0.82 q -0.3,1.38 -1.01,2.54 -0.78,1.28 -1.21,2.74 -0.41,1.37 -1.65,2.25 -0.47,0.33 -0.47,0.9 0.02,3.63 -1.87,7.35 a 1.88,1.87 55.1 0 0 -0.19,1.08 c 0.07,0.51 0.07,1.05 -0.11,1.54 q -2.83,7.83 -2.16,15.02 0.31,3.32 3.09,3.95 z"
     id="path522" />
  <path
     fill="#3a0e01"
     d="m 389.77,924.85 c -1.85,1.51 -2.2,3.77 -3.73,5.53 q -2.11,2.41 -3.28,5.39 -0.97,2.47 -2.65,4.66 -1.48,1.93 -2.64,4.15 -1.57,2.98 -5.13,3.08 c -5.68,0.14 -4.54,-5.54 -3.04,-8.74 0.58,-1.23 0.78,-3.05 1.74,-4.3 q 0.33,-0.43 0.4,-0.97 0.4,-3.42 1.07,-4.65 1.38,-2.54 2.4,-4.66 0.93,-1.9 2.27,-3.67 1.27,-1.69 2.41,-3.48 1.17,-1.83 2.72,-3.53 3.61,-3.96 8.17,-4.64 c 3.75,-0.55 7.87,-0.43 11.41,0.54 q 4.43,1.21 7.97,2.94 2.41,1.17 5,2.53 2.32,1.21 4.32,2.7 c 1.83,1.37 3.49,2.83 5.55,3.88 5.01,2.54 5.32,5.55 5.26,10.71 -0.07,5.86 -0.76,10.25 -5.25,14.48 q -4.05,3.83 -9.86,5.7 c -2.73,0.89 -5.58,0.98 -8.38,1.28 q -3.32,0.35 -8.09,-0.21 -3.83,-0.46 -6.27,-2.76 c -4.61,-4.37 -3.41,-14.43 -2.12,-20.1 0.39,-1.72 0.46,-3.57 0.64,-5.38 a 0.55,0.55 0 0 0 -0.89,-0.48 z"
     id="path524" />
  <path
     fill="#3a0e01"
     d="m 522.66,952.67 q -2.78,-0.63 -3.09,-3.95 -0.67,-7.19 2.16,-15.02 c 0.18,-0.49 0.18,-1.03 0.11,-1.54 a 1.88,1.87 55.1 0 1 0.19,-1.08 q 1.89,-3.72 1.87,-7.35 0,-0.57 0.47,-0.9 1.24,-0.88 1.65,-2.25 0.43,-1.46 1.21,-2.74 0.71,-1.16 1.01,-2.54 a 1.49,1.53 75.6 0 1 0.5,-0.82 q 6.21,-5.19 14.85,-4.33 2.06,0.2 4.35,0.47 c 3.2,0.39 5.93,1.48 8.94,2.45 q 0.46,0.14 0.8,0.48 0.47,0.44 1.14,0.52 0.44,0.06 0.83,0.26 2.34,1.23 4.4,2.37 2.56,1.42 4.81,4.04 c 1.81,2.11 1.36,4.7 2.17,7.23 1.7,5.3 -0.33,12.47 -3.25,16.58 q -1.75,2.48 -5.66,4.89 c -3.24,1.99 -7.22,3.47 -10.87,1.51 q -4.37,-2.33 -5.53,-7.47 c -1.48,-6.52 -1.63,-12.27 -1.12,-18.72 a 0.8,0.79 79.3 0 0 -1.14,-0.78 q -1.36,0.67 -2.12,2.07 c -1.77,3.26 -3.74,6.52 -4.53,10.18 -1.06,4.87 -3.15,9.88 -6.46,13.76 q -3.16,3.7 -7.69,2.68 z"
     id="path526" />
</svg>
